<svg width="40" height="40" viewBox="0 0 40 40" fill="none" xmlns="http://www.w3.org/2000/svg">
<path d="M31.6125 3.87097H26.4512V0H13.5479V3.87097H8.38666C7.31956 3.87097 6.45117 4.73935 6.45117 5.80645V38.0645C6.45117 39.1316 7.31956 40 8.38666 40H31.6125C32.6796 40 33.5479 39.1316 33.5479 38.0645V5.80645C33.5479 4.73935 32.6796 3.87097 31.6125 3.87097ZM14.8383 1.29032H25.1609V3.87097H14.8383V1.29032ZM32.2576 38.0645C32.2576 38.42 31.9686 38.7097 31.6125 38.7097H8.38666C8.03053 38.7097 7.74149 38.42 7.74149 38.0645V10.3226H32.2576V38.0645ZM32.2576 9.03226H7.74149V5.80645C7.74149 5.45097 8.03053 5.16129 8.38666 5.16129H31.6125C31.9686 5.16129 32.2576 5.45097 32.2576 5.80645V9.03226Z" fill="#4A704C"/>
<path d="M28.3871 34.1935H20.6451V27.7419H22.5806C27.2051 27.7419 30.9677 23.9793 30.9677 19.3548V18.7096H27.7419C24.7529 18.7096 22.1309 20.2864 20.6451 22.6477V21.9354C20.6451 17.3109 16.8825 13.5483 12.258 13.5483H9.03223V14.1935C9.03223 18.818 12.7948 22.5806 17.4193 22.5806H19.3548V27.0967V34.1935H9.03223V35.4838H28.3871V34.1935ZM27.7419 20H29.6484C29.3213 23.6122 26.2767 26.4516 22.5806 26.4516H20.6742C21.0013 22.8393 24.0458 20 27.7419 20ZM17.4193 21.2903C13.7232 21.2903 10.6787 18.4509 10.3516 14.8387H12.258C15.9542 14.8387 18.9987 17.678 19.3258 21.2903H17.4193Z" fill="#4A704C"/>
<path d="M30.9671 34.1936H29.6768V35.4839H30.9671V34.1936Z" fill="#4A704C"/>
<path d="M23.2249 31.6128H21.9346V32.9031H23.2249V31.6128Z" fill="#4A704C"/>
<path d="M25.8059 31.6128H24.5156V32.9031H25.8059V31.6128Z" fill="#4A704C"/>
<path d="M28.387 31.6128H27.0967V32.9031H28.387V31.6128Z" fill="#4A704C"/>
<path d="M18.0638 31.6128H16.7734V32.9031H18.0638V31.6128Z" fill="#4A704C"/>
<path d="M15.4837 31.6128H14.1934V32.9031H15.4837V31.6128Z" fill="#4A704C"/>
<path d="M12.9026 31.6128H11.6123V32.9031H12.9026V31.6128Z" fill="#4A704C"/>
</svg>
