<svg width="40" height="40" viewBox="0 0 40 40" fill="none" xmlns="http://www.w3.org/2000/svg">
<g clip-path="url(#clip0_84_505)">
<path d="M40 10.3226V3.87097H37.4194V0H29.6774V3.87097H10.3226V0H2.58065V3.87097H0V10.3226H1.29032V33.5484H0V40H40V33.5484H38.7097V10.3226H40ZM30.9677 1.29032H36.129V3.87097H30.9677V1.29032ZM3.87097 1.29032H9.03226V3.87097H3.87097V1.29032ZM38.7097 38.7097H37.4194V36.129H36.129V38.7097H34.8387V36.129H33.5484V38.7097H32.2581V36.129H30.9677V38.7097H29.6774V36.129H28.3871V38.7097H27.0968V36.129H25.8064V38.7097H24.5161V36.129H23.2258V38.7097H21.9355V36.129H20.6452V38.7097H19.3548V36.129H18.0645V38.7097H16.7742V36.129H15.4839V38.7097H14.1935V36.129H12.9032V38.7097H11.6129V36.129H10.3226V38.7097H9.03226V36.129H7.74194V38.7097H6.45161V36.129H5.16129V38.7097H3.87097V36.129H2.58065V38.7097H1.29032V34.8387H38.7097V38.7097ZM2.58065 33.5484V10.3226H37.4194V33.5484H2.58065ZM1.29032 9.03226V5.16129H2.58065V7.74194H3.87097V5.16129H5.16129V7.74194H6.45161V5.16129H7.74194V7.74194H9.03226V5.16129H10.3226V7.74194H11.6129V5.16129H12.9032V7.74194H14.1935V5.16129H15.4839V7.74194H16.7742V5.16129H18.0645V7.74194H19.3548V5.16129H20.6452V7.74194H21.9355V5.16129H23.2258V7.74194H24.5161V5.16129H25.8064V7.74194H27.0968V5.16129H28.3871V7.74194H29.6774V5.16129H30.9677V7.74194H32.2581V5.16129H33.5484V7.74194H34.8387V5.16129H36.129V7.74194H37.4194V5.16129H38.7097V9.03226H1.29032Z" fill="#4A704C"/>
<path d="M7.0969 11.6128H5.80658V13.5483H3.87109V14.8386H5.80658V16.7741H7.0969V14.8386H9.03238V13.5483H7.0969V11.6128Z" fill="#4A704C"/>
<path d="M36.1291 13.5483H30.9678V14.8387H36.1291V13.5483Z" fill="#4A704C"/>
<path d="M20.0003 11.6128C14.3087 11.6128 9.67773 16.2438 9.67773 21.9354C9.67773 27.627 14.3087 32.258 20.0003 32.258C25.6919 32.258 30.3229 27.627 30.3229 21.9354C30.3229 16.2438 25.6919 11.6128 20.0003 11.6128ZM20.0003 30.9676C15.0197 30.9676 10.9681 26.916 10.9681 21.9354C10.9681 16.9547 15.0197 12.9031 20.0003 12.9031C24.981 12.9031 29.0326 16.9547 29.0326 21.9354C29.0326 26.916 24.981 30.9676 20.0003 30.9676Z" fill="#4A704C"/>
<path d="M23.8711 17.4194C22.2272 17.4194 20.7904 18.3052 20.0001 19.6214C19.2098 18.3052 17.773 17.4194 16.1291 17.4194H12.9033V18.0646C12.9033 20.5543 14.9298 22.5807 17.4194 22.5807H19.3549V29.6775H20.6453V22.5807H22.5807C25.0704 22.5807 27.0969 20.5543 27.0969 18.0646V17.4194H23.8711ZM17.4194 21.2904C15.8614 21.2904 14.5582 20.1801 14.2588 18.7098H16.1291C17.6872 18.7098 18.9904 19.8201 19.2898 21.2904H17.4194ZM22.5807 21.2904H20.7104C21.0098 19.8201 22.313 18.7098 23.8711 18.7098H25.7414C25.4414 20.1801 24.1388 21.2904 22.5807 21.2904Z" fill="#4A704C"/>
<path d="M36.1292 30.9678H34.8389V32.2581H36.1292V30.9678Z" fill="#4A704C"/>
<path d="M33.5481 30.9678H32.2578V32.2581H33.5481V30.9678Z" fill="#4A704C"/>
<path d="M30.9681 30.9678H29.6777V32.2581H30.9681V30.9678Z" fill="#4A704C"/>
</g>
<defs>
<clipPath id="clip0_84_505">
<rect width="40" height="40" fill="white"/>
</clipPath>
</defs>
</svg>
