<svg width="40" height="40" viewBox="0 0 40 40" fill="none" xmlns="http://www.w3.org/2000/svg">
<g clip-path="url(#clip0_84_483)">
<path d="M13.6787 22.1812C11.4818 22.1812 9.69434 23.9686 9.69434 26.1655C9.69434 28.3625 11.4818 30.1499 13.6787 30.1499C15.8757 30.1499 17.6631 28.3625 17.6631 26.1655C17.6631 23.9686 15.8757 22.1812 13.6787 22.1812ZM13.6787 28.5874C12.3433 28.5874 11.2568 27.501 11.2568 26.1655C11.2568 24.8301 12.3433 23.7437 13.6787 23.7437C15.0142 23.7437 16.1006 24.8301 16.1006 26.1655C16.1006 27.501 15.0142 28.5874 13.6787 28.5874Z" fill="#4A704C"/>
<path d="M13.6787 18.1187C9.24146 18.1187 5.63184 21.7286 5.63184 26.1655C5.63184 30.6028 9.24146 34.2124 13.6787 34.2124C18.1157 34.2124 21.7256 30.6028 21.7256 26.1655C21.7256 21.7286 18.1157 18.1187 13.6787 18.1187ZM13.6787 32.6499C10.103 32.6499 7.19434 29.7413 7.19434 26.1655C7.19434 22.5901 10.103 19.6812 13.6787 19.6812C17.2542 19.6812 20.1631 22.5901 20.1631 26.1655C20.1631 29.7413 17.2542 32.6499 13.6787 32.6499Z" fill="#4A704C"/>
<path d="M31.0843 12.2663C33.0716 12.2663 34.6884 10.6495 34.6884 8.66218C34.6884 6.67487 33.0716 5.05835 31.0843 5.05835C29.097 5.05835 27.4805 6.67487 27.4805 8.66218C27.4805 10.6495 29.097 12.2663 31.0843 12.2663ZM31.0843 6.62085C32.2101 6.62085 33.1259 7.53669 33.1259 8.66218C33.1259 9.78797 32.2101 10.7038 31.0843 10.7038C29.9588 10.7038 29.043 9.78797 29.043 8.66218C29.043 7.53669 29.9588 6.62085 31.0843 6.62085Z" fill="#4A704C"/>
<path d="M39.8173 6.30678L37.4909 2.27723C37.4223 2.15851 37.3237 2.05994 37.205 1.99128L33.8016 0.0265505C33.6829 -0.0421141 33.5483 -0.078125 33.411 -0.078125H28.7583C28.6213 -0.078125 28.4867 -0.0421141 28.3677 0.0265505L24.9643 1.99128C24.9509 1.99921 24.9378 2.00715 24.925 2.016L5.71717 14.6854C5.67323 14.7144 5.63203 14.7476 5.5948 14.7852L2.3111 18.0689C2.23847 18.1415 2.1811 18.2276 2.14173 18.3222L-0.0186156 23.538C-0.0579834 23.6329 -0.078125 23.7345 -0.078125 23.837V28.4809C-0.078125 28.5834 -0.0579834 28.6847 -0.0186156 28.7797L2.14173 33.9954C2.1811 34.0903 2.23847 34.1764 2.3111 34.249L5.5948 37.5327C5.66743 37.6054 5.75349 37.6627 5.8481 37.7021L11.0639 39.8624C11.1588 39.9015 11.2604 39.922 11.3629 39.922H16.0068C16.1093 39.922 16.211 39.9015 16.3059 39.8624L21.5217 37.7021C21.6163 37.6627 21.7023 37.6054 21.7749 37.5327L25.0586 34.249C25.0977 34.21 25.1322 34.1669 25.1624 34.1206L37.4705 15.0806C37.4775 15.0696 37.4842 15.0583 37.4909 15.047L39.8173 11.0175C39.8856 10.8988 39.922 10.7642 39.922 10.6269V6.6974C39.922 6.56038 39.8859 6.42549 39.8173 6.30678ZM36.8143 13.0939L36.72 12.9303C37.0774 12.4604 37.3716 11.951 37.6002 11.4084H37.7876L36.8143 13.0939ZM24.375 32.4604L23.8254 31.9108C24.2997 31.0755 24.6665 30.1884 24.9207 29.2621H26.4426L24.375 32.4604ZM21.2226 35.8753L20.112 34.7648C19.852 34.5048 19.4458 34.4614 19.1367 34.6604C18.1241 35.3126 17.0151 35.7731 15.8405 36.0291C15.4816 36.1076 15.2256 36.4252 15.2256 36.7927V38.3595H12.1442V36.7954C12.1442 36.4277 11.8878 36.11 11.5286 36.0322C10.3519 35.7767 9.24135 35.3172 8.22725 34.6656C7.91841 34.4669 7.51253 34.5106 7.25252 34.7703L6.14717 35.8753L3.96851 33.6967L5.07356 32.5913C5.33357 32.3316 5.3769 31.9257 5.17823 31.6166C4.52668 30.6025 4.06709 29.4919 3.81196 28.3152C3.73414 27.956 3.41614 27.6996 3.04841 27.6996H1.48438V24.6183H3.05146C3.41859 24.6183 3.73627 24.3622 3.81471 24.0033C4.07075 22.8287 4.53156 21.7197 5.18342 20.7071C5.3824 20.398 5.33906 19.9918 5.07905 19.7318L3.96851 18.6213L5.05799 17.5318L6.14717 16.4423L7.26045 17.5556C7.52046 17.8153 7.92574 17.8589 8.23488 17.6609C9.24623 17.0121 10.3546 16.554 11.5286 16.2992C11.8878 16.2213 12.1442 15.9034 12.1442 15.5356V13.9585H15.2256V15.5387C15.2256 15.9061 15.4816 16.2238 15.8405 16.3019C17.0127 16.5576 18.1192 17.0166 19.1291 17.6657C19.4385 17.8644 19.8441 17.8208 20.1041 17.5611L21.2226 16.4426L23.4015 18.6213L22.2831 19.74C22.0231 19.9997 21.9794 20.4056 22.1781 20.7148C22.8275 21.7249 23.2862 22.8315 23.5419 24.0036C23.6203 24.3625 23.9377 24.6183 24.3052 24.6183H25.8857V27.6996H24.3082C23.9405 27.6996 23.6225 27.956 23.5447 28.3155C23.2901 29.4895 22.8324 30.5976 22.1833 31.6093C21.9849 31.9181 22.0285 32.3237 22.2883 32.5834L23.4015 33.6967L22.3227 34.7758L21.2226 35.8753ZM19.8435 36.706L16.7881 37.9713V37.4043C17.7158 37.1485 18.6039 36.7799 19.4403 36.3029L19.8435 36.706ZM10.5817 37.9716L7.52657 36.706L7.92452 36.3081C8.76283 36.7847 9.65242 37.1528 10.5817 37.4079V37.9716ZM7.37703 15.4624L10.5817 13.3484V14.9231C9.65548 15.1773 8.76833 15.5442 7.93306 16.0184L7.37703 15.4624ZM26.6666 23.0558H24.9167C24.6619 22.1311 24.2951 21.2458 23.8205 20.4117L25.0589 19.1736C25.3638 18.8684 25.3638 18.3738 25.0589 18.0689L21.7753 14.7849C21.6285 14.6384 21.4298 14.5563 21.2226 14.5563C21.0154 14.5563 20.8167 14.6384 20.6702 14.7849L19.4321 16.0233C18.5981 15.5487 17.7127 15.1819 16.7884 14.9271V13.1772C16.7884 12.7457 16.4383 12.396 16.0071 12.396H12.0261L25.0931 3.77686L25.4496 4.39393C25.0925 4.86421 24.798 5.37324 24.5694 5.91615H23.0289C22.5974 5.91615 22.2477 6.26588 22.2477 6.6974V10.6272C22.2477 11.0587 22.5974 11.4084 23.0289 11.4084H24.5694C24.798 11.951 25.0922 12.46 25.4496 12.9303L24.6787 14.2658C24.5749 14.4452 24.5469 14.6585 24.6006 14.8584C24.6543 15.0586 24.7852 15.2292 24.9646 15.333L28.368 17.2977C28.491 17.3688 28.6252 17.4027 28.7577 17.4027C29.0278 17.4027 29.2902 17.2626 29.4352 17.0118L30.2061 15.6766C30.788 15.7489 31.3816 15.7489 31.9639 15.6766L32.7347 17.0118C32.8382 17.1912 33.0088 17.3221 33.209 17.3758C33.4092 17.4295 33.6222 17.4015 33.8016 17.2977L34.3998 16.9525L27.4482 27.7067V23.8367C27.4479 23.4055 27.0981 23.0558 26.6666 23.0558ZM29.123 2.89704C29.2914 3.18879 29.6284 3.33985 29.9583 3.27119C30.6953 3.11799 31.4744 3.11829 32.2111 3.27119C32.5413 3.33985 32.8782 3.18879 33.0466 2.89704L33.697 1.77033L35.7471 2.95411L35.0959 4.08173C34.9271 4.37409 34.965 4.74183 35.1902 4.9933C35.7001 5.56367 36.0789 6.21888 36.3166 6.94154C36.4219 7.26198 36.7213 7.47865 37.0588 7.47865H38.3595V9.84591H37.0588C36.7213 9.84591 36.4219 10.0626 36.3166 10.383C36.0792 11.1057 35.7001 11.7609 35.1902 12.3313C34.9653 12.5827 34.9271 12.9505 35.0959 13.2428L35.7471 14.3705L33.697 15.5542L33.0466 14.4275C32.8782 14.1355 32.5413 13.9847 32.2114 14.0534C31.4744 14.2063 30.6953 14.2063 29.9586 14.0534C29.6284 13.9847 29.2917 14.1355 29.123 14.4275L28.4727 15.5542L26.4225 14.3705L27.0737 13.2428C27.2425 12.9505 27.2046 12.5827 26.9794 12.3313C26.4695 11.7609 26.0907 11.1057 25.853 10.383C25.7477 10.0626 25.4484 9.84591 25.1108 9.84591H23.8102V7.47865H25.1108C25.4484 7.47865 25.7477 7.26198 25.853 6.94154C26.0907 6.21888 26.4695 5.56367 26.9794 4.9933C27.2046 4.74183 27.2425 4.37409 27.0737 4.08173L26.4225 2.95411L28.4727 1.77033L29.123 2.89704ZM30.1115 1.48438H32.0579L31.9636 1.64795C31.3813 1.57532 30.788 1.57532 30.2057 1.64795L30.1115 1.48438ZM37.6002 5.91615C37.3716 5.37324 37.0774 4.86421 36.72 4.39393L36.8143 4.23066L37.7876 5.91615H37.6002ZM3.13782 20.0003L3.54096 20.4035C3.06397 21.24 2.69532 22.128 2.43958 23.0558H1.87256L3.13782 20.0003ZM1.87226 29.2621H2.43592C2.69105 30.1914 3.05939 31.0813 3.53608 31.9193L3.13782 32.3173L1.87226 29.2621Z" fill="#4A704C"/>
<path d="M36.148 22.305C35.7848 22.0719 35.3017 22.1775 35.0686 22.5406L31.2527 28.4879C31.0198 28.8511 31.1251 29.3345 31.4883 29.5673C31.6189 29.6512 31.7651 29.6912 31.9094 29.6912C32.1667 29.6912 32.4187 29.5643 32.5677 29.3317L36.3839 23.3845C36.6167 23.0213 36.5115 22.5379 36.148 22.305Z" fill="#4A704C"/>
<path d="M30.1758 30.8313C29.9704 30.8313 29.7687 30.914 29.6234 31.0593C29.4772 31.2054 29.3945 31.4072 29.3945 31.6126C29.3945 31.8179 29.4772 32.0187 29.6234 32.1649C29.7687 32.3102 29.9704 32.3938 30.1758 32.3938C30.3812 32.3938 30.5829 32.3102 30.7282 32.1649C30.8734 32.0197 30.957 31.8179 30.957 31.6126C30.957 31.4063 30.8734 31.2054 30.7282 31.0593C30.5829 30.914 30.3812 30.8313 30.1758 30.8313Z" fill="#4A704C"/>
<path d="M8.98022 10.2661C9.12853 10.2661 9.27837 10.224 9.41113 10.1361L15.6239 6.01834C15.9837 5.77999 16.082 5.29537 15.8436 4.93557C15.605 4.57577 15.1204 4.47781 14.7609 4.71615L8.54809 8.83359C8.18828 9.07193 8.09002 9.55686 8.32836 9.91636C8.47851 10.1434 8.72723 10.2661 8.98022 10.2661Z" fill="#4A704C"/>
<path d="M18.1309 4.20069C18.3365 4.20069 18.538 4.11798 18.6832 3.97272C18.8285 3.82654 18.9121 3.62482 18.9121 3.41944C18.9121 3.21405 18.8288 3.01325 18.6832 2.86707C18.538 2.7218 18.3365 2.63818 18.1309 2.63818C17.9246 2.63818 17.7231 2.7218 17.5779 2.86707C17.4326 3.01325 17.3496 3.21405 17.3496 3.41944C17.3496 3.62573 17.4326 3.82654 17.5779 3.97272C17.7241 4.11798 17.9246 4.20069 18.1309 4.20069Z" fill="#4A704C"/>
</g>
<defs>
<clipPath id="clip0_84_483">
<rect width="40" height="40" fill="white"/>
</clipPath>
</defs>
</svg>
