<svg width="40" height="40" viewBox="0 0 40 40" fill="none" xmlns="http://www.w3.org/2000/svg">
<g clip-path="url(#clip0_84_476)">
<path d="M20.0186 39.922H20.0079C19.8783 39.922 19.7505 39.8896 19.6364 39.8283C19.5964 39.8066 15.5919 37.649 11.5848 35.308C9.64191 34.1727 7.43484 32.7494 5.79773 30.7984C4.02945 28.6912 3.16992 26.2806 3.16992 23.4287V8.7961C3.16992 8.5013 3.33626 8.23183 3.59984 8.09877L19.641 0.0128175C19.7495 -0.0448608 19.8734 -0.0775146 20.0049 -0.078125H20.0061H20.0079H20.0186H20.0202H20.0217C20.1532 -0.0775146 20.277 -0.0448608 20.3856 0.0128175L36.4267 8.09877C36.6903 8.23183 36.8566 8.5013 36.8566 8.7961V12.9346C36.8566 13.3661 36.5062 13.7158 36.0738 13.7158C35.6415 13.7158 35.2911 13.3661 35.2911 12.9346V9.27675L20.0131 1.57563L4.73548 9.27675V23.4287C4.73548 29.0269 8.67934 31.7997 12.3758 33.9594C15.6571 35.8765 18.9371 37.6704 20.0131 38.2548C21.0891 37.6704 24.3695 35.8765 27.6507 33.9594C31.3472 31.7997 35.2911 29.0269 35.2911 23.4287V19.1846C35.2911 18.7531 35.6415 18.4034 36.0738 18.4034C36.5062 18.4034 36.8566 18.7531 36.8566 19.1846V23.4287C36.8566 26.2806 35.9971 28.6912 34.2288 30.7984C32.5917 32.7494 30.3846 34.1727 28.4418 35.308C24.4346 37.649 20.4302 39.8066 20.3901 39.8283C20.2761 39.8899 20.1483 39.922 20.0186 39.922ZM36.0748 16.919C35.6424 16.919 35.2914 16.5692 35.2914 16.1377C35.2914 15.7062 35.6415 15.3565 36.0738 15.3565H36.0748C36.5068 15.3565 36.8575 15.7062 36.8575 16.1377C36.8575 16.5692 36.5068 16.919 36.0748 16.919Z" fill="#4A704C"/>
<path d="M20.0136 35.6504C19.8833 35.6504 19.7531 35.6181 19.6354 35.5531C18.105 34.7105 15.7955 33.4226 13.4835 32.0716C9.33142 29.6461 6.92773 27.454 6.92773 23.4287V11.1033C6.92773 10.8085 7.09377 10.539 7.35765 10.4059L19.6607 4.20413C19.8827 4.09244 20.1448 4.09244 20.3668 4.20413L32.6702 10.4059C32.9337 10.539 33.0998 10.8085 33.0998 11.1033V23.4287C33.0998 27.454 30.6961 29.6461 26.544 32.0716C24.2339 33.4214 21.9235 34.7099 20.3918 35.5531C20.2741 35.6181 20.1439 35.6504 20.0136 35.6504ZM8.49329 11.5839V23.4287C8.49329 26.7399 10.4401 28.4831 14.2742 30.7234C16.3893 31.9587 18.5034 33.1425 20.0136 33.9765C21.5247 33.1419 23.6398 31.9581 25.753 30.7234C29.5873 28.4831 31.5342 26.7399 31.5342 23.4287V11.5839L20.0136 5.77671L8.49329 11.5839Z" fill="#4A704C"/>
<path d="M21.9527 23.9319C21.746 23.9319 21.5439 23.8483 21.3983 23.703C21.2528 23.5577 21.1699 23.3563 21.1699 23.1506C21.1699 22.9453 21.2528 22.7435 21.3983 22.5983C21.5448 22.453 21.746 22.3694 21.9527 22.3694C22.1585 22.3694 22.3603 22.453 22.5058 22.5983C22.6517 22.7435 22.7355 22.9453 22.7355 23.1506C22.7355 23.3563 22.6517 23.5577 22.5058 23.703C22.3603 23.8483 22.1585 23.9319 21.9527 23.9319Z" fill="#4A704C"/>
<path d="M18.2399 27.6368C18.0323 27.6368 17.8332 27.5544 17.6864 27.4079L13.0656 22.7964C12.0434 21.7762 12.0431 20.116 13.0656 19.0955C13.5609 18.6014 14.2193 18.3289 14.9195 18.3289C15.62 18.3289 16.2783 18.6011 16.7737 19.0955L18.2399 20.5588L23.2533 15.5552C23.7487 15.0608 24.407 14.7886 25.1075 14.7886C25.8078 14.7886 26.4661 15.0608 26.9614 15.5549C27.984 16.5754 27.984 18.2355 26.9614 19.2561L24.2083 22.0039C23.9025 22.309 23.4068 22.309 23.1011 22.0039C22.7953 21.6987 22.7956 21.204 23.1011 20.8988L25.8545 18.151C26.2664 17.7399 26.2664 17.071 25.8545 16.6599C25.6549 16.4606 25.3895 16.3511 25.1072 16.3511C24.8253 16.3511 24.5599 16.4606 24.3605 16.6599L18.7933 22.2163C18.4876 22.5211 17.9919 22.5214 17.6864 22.2163L15.6665 20.2003C15.2546 19.7892 14.5844 19.7895 14.1725 20.2003C13.7606 20.6113 13.7606 21.2803 14.1725 21.6914L18.2399 25.7505L19.4709 24.5219C19.7767 24.2167 20.2724 24.2167 20.5781 24.5219C20.8836 24.827 20.8839 25.3217 20.5781 25.6266L18.7933 27.4079C18.6466 27.5544 18.4475 27.6368 18.2399 27.6368Z" fill="#4A704C"/>
</g>
<defs>
<clipPath id="clip0_84_476">
<rect width="40" height="40" fill="white"/>
</clipPath>
</defs>
</svg>
