<svg width="40" height="40" viewBox="0 0 40 40" fill="none" xmlns="http://www.w3.org/2000/svg">
<g clip-path="url(#clip0_84_446)">
<path d="M9.65547 8.9654C10.0367 8.9654 10.3451 8.6566 10.3451 8.27574V2.7585C10.3451 2.37764 10.0367 2.06885 9.65547 2.06885C9.27428 2.06885 8.96582 2.37764 8.96582 2.7585V8.27574C8.96582 8.6566 9.27428 8.9654 9.65547 8.9654Z" fill="#4A704C"/>
<path d="M39.9473 19.7361C39.8409 19.4785 39.589 19.3104 39.3102 19.3104H31.0344V6.20699C31.0344 5.82613 30.7259 5.51733 30.3447 5.51733C29.9636 5.51733 29.6551 5.82613 29.6551 6.20699V20.0001C29.6551 20.381 29.9636 20.6897 30.3447 20.6897H37.6453L20 38.3352L2.35466 20.6897H9.65525C10.0364 20.6897 10.3449 20.381 10.3449 20.0001V11.0346C10.3449 10.6537 10.0364 10.3449 9.65525 10.3449C9.27406 10.3449 8.9656 10.6537 8.9656 11.0346V19.3104H0.689802C0.410978 19.3104 0.159095 19.4785 0.0526837 19.7361C-0.0544005 19.994 0.00486621 20.2904 0.202198 20.4877L19.5124 39.798C19.6471 39.9327 19.8235 40.0001 20 40.0001C20.1765 40.0001 20.3529 39.9327 20.4876 39.798L39.7978 20.4877C39.9951 20.2904 40.0544 19.994 39.9473 19.7361Z" fill="#4A704C"/>
<path d="M16.552 4.82759C16.9331 4.82759 17.2416 4.51879 17.2416 4.13793V0.689655C17.2416 0.308796 16.9331 0 16.552 0C16.1708 0 15.8623 0.308796 15.8623 0.689655V4.13793C15.8623 4.51879 16.1708 4.82759 16.552 4.82759Z" fill="#4A704C"/>
<path d="M23.4484 6.89655C23.8296 6.89655 24.1381 6.58776 24.1381 6.2069V0.689655C24.1381 0.308796 23.8296 0 23.4484 0C23.0672 0 22.7588 0.308796 22.7588 0.689655V6.2069C22.7588 6.58776 23.0672 6.89655 23.4484 6.89655Z" fill="#4A704C"/>
<path d="M4.82755 36.5516H3.44825V35.1723C3.44825 34.7915 3.13979 34.4827 2.7586 34.4827C2.37741 34.4827 2.06895 34.7915 2.06895 35.1723V36.5516H0.68965C0.308457 36.5516 0 36.8604 0 37.2413C0 37.6221 0.308457 37.9309 0.68965 37.9309H2.06895V39.3103C2.06895 39.6911 2.37741 39.9999 2.7586 39.9999C3.13979 39.9999 3.44825 39.6911 3.44825 39.3103V37.9309H4.82755C5.20874 37.9309 5.5172 37.6221 5.5172 37.2413C5.5172 36.8604 5.20874 36.5516 4.82755 36.5516Z" fill="#4A704C"/>
<path d="M8.27618 32.4137C8.27618 33.1758 7.65893 33.793 6.89688 33.793C6.13516 33.793 5.51758 33.1758 5.51758 32.4137C5.51758 31.652 6.13516 31.0344 6.89688 31.0344C7.65893 31.0344 8.27618 31.652 8.27618 32.4137Z" fill="#4A704C"/>
<path d="M39.31 36.5516H37.9307V35.1723C37.9307 34.7915 37.6222 34.4827 37.241 34.4827C36.8598 34.4827 36.5514 34.7915 36.5514 35.1723V36.5516H35.1721C34.7909 36.5516 34.4824 36.8604 34.4824 37.2413C34.4824 37.6221 34.7909 37.9309 35.1721 37.9309H36.5514V39.3103C36.5514 39.6911 36.8598 39.9999 37.241 39.9999C37.6222 39.9999 37.9307 39.6911 37.9307 39.3103V37.9309H39.31C39.6912 37.9309 39.9996 37.6221 39.9996 37.2413C39.9996 36.8604 39.6912 36.5516 39.31 36.5516Z" fill="#4A704C"/>
<path d="M34.4822 32.4137C34.4822 33.1758 33.865 33.793 33.1029 33.793C32.3412 33.793 31.7236 33.1758 31.7236 32.4137C31.7236 31.652 32.3412 31.0344 33.1029 31.0344C33.865 31.0344 34.4822 31.652 34.4822 32.4137Z" fill="#4A704C"/>
<path d="M19.5079 20.6896H20.4925C21.7418 20.6896 22.7588 21.7063 22.7588 22.9556C22.7588 24.2049 21.7418 25.2216 20.4925 25.2216H17.5373C17.1561 25.2216 16.8476 25.5304 16.8476 25.9112C16.8476 26.2921 17.1561 26.6009 17.5373 26.6009H19.3106V27.8819C19.3106 28.2627 19.619 28.5715 20.0002 28.5715C20.3814 28.5715 20.6899 28.2627 20.6899 27.8819V26.581C22.6069 26.4763 24.1381 24.8983 24.1381 22.9556C24.1381 20.9456 22.5029 19.3103 20.4925 19.3103H19.5079C18.2586 19.3103 17.2416 18.2937 17.2416 17.0444C17.2416 15.795 18.2586 14.7784 19.5079 14.7784H21.9708C22.352 14.7784 22.6605 14.4696 22.6605 14.0888C22.6605 13.7079 22.352 13.3991 21.9708 13.3991H20.6899V12.1181C20.6899 11.7373 20.3814 11.4285 20.0002 11.4285C19.619 11.4285 19.3106 11.7373 19.3106 12.1181V13.4193C17.3935 13.524 15.8623 15.102 15.8623 17.0444C15.8623 19.0544 17.4975 20.6896 19.5079 20.6896Z" fill="#4A704C"/>
</g>
<defs>
<clipPath id="clip0_84_446">
<rect width="40" height="40" fill="white"/>
</clipPath>
</defs>
</svg>
