<svg width="40" height="40" viewBox="0 0 40 40" fill="none" xmlns="http://www.w3.org/2000/svg">
<g clip-path="url(#clip0_84_458)">
<path d="M31.0768 17.0976C30.9626 16.979 30.8121 16.9017 30.6491 16.8781V16.9003L23.7526 15.8992L20.6677 9.61818C20.485 9.25166 20.0397 9.10261 19.6731 9.28531C19.529 9.35715 19.4121 9.47404 19.3403 9.61818L16.2553 15.8696L9.35879 16.8707C8.95352 16.9295 8.67256 17.3057 8.73143 17.7111C8.75506 17.874 8.83228 18.0246 8.95093 18.1388L13.9417 23.0034L12.7626 29.8703C12.6955 30.2744 12.9685 30.6563 13.3725 30.7234C13.5316 30.7498 13.6949 30.7237 13.8378 30.649L20.0002 27.4157L26.1701 30.6564C26.533 30.8462 26.9811 30.7059 27.1709 30.3431C27.2456 30.2002 27.2718 30.0368 27.2453 29.8777L26.0662 23.0108L31.057 18.1462C31.352 17.8622 31.3609 17.3927 31.0768 17.0976ZM24.7537 22.2248C24.5795 22.394 24.4991 22.6377 24.5386 22.8774L25.5249 28.6542L20.3339 25.9252C20.1181 25.8118 19.8602 25.8118 19.6443 25.9252L14.4533 28.6542L15.4396 22.8774C15.4791 22.6377 15.3987 22.394 15.2246 22.2248L11.0273 18.1388L16.8263 17.2934C17.0675 17.2571 17.2755 17.1046 17.3825 16.8855L20.0002 11.6501L22.5957 16.9003C22.7028 17.1195 22.9107 17.272 23.1519 17.3082L28.9509 18.1536L24.7537 22.2248Z" fill="#4A704C"/>
<path d="M39.8517 19.0584L36.6407 15.0911L37.1227 10.0558C37.1464 9.73511 36.9608 9.43561 36.6629 9.31427L31.9614 7.39362L29.8554 2.79592C29.7178 2.49846 29.4012 2.32651 29.0767 2.37323L24.0712 3.11479L19.9481 0.148534C19.6844 -0.0491858 19.3218 -0.0491858 19.0582 0.148534L15.0908 3.35951L10.0556 2.87749C9.73301 2.85487 9.43287 3.04388 9.31403 3.34468L7.39338 8.03878L2.79568 10.1448C2.49822 10.2824 2.32627 10.599 2.37298 10.9235L3.11455 15.929L0.14829 20.0521C-0.0494299 20.3158 -0.0494299 20.6784 0.14829 20.942L3.28511 24.9094L2.80309 29.9446C2.78047 30.2672 2.96948 30.5673 3.27028 30.6862L8.03854 32.6068L10.1446 37.2045C10.2821 37.502 10.5988 37.6739 10.9232 37.6272L15.9288 36.8857L20.0519 39.8519C20.3155 40.0496 20.6781 40.0496 20.9418 39.8519L24.9091 36.7151L29.9444 37.1971C30.2651 37.2208 30.5646 37.0352 30.6859 36.7373L32.6066 31.9617L37.2043 29.8556C37.5017 29.7181 37.6736 29.4014 37.627 29.077L36.8854 24.0714L39.8517 19.9483C40.0494 19.6847 40.0494 19.3222 39.8517 19.0584ZM35.4838 23.4559C35.3751 23.6113 35.33 23.8023 35.3578 23.9898L36.0474 28.7359L31.6796 30.7307C31.5068 30.8107 31.3714 30.9541 31.3014 31.1311L29.5291 35.5805L24.7534 35.1281C24.5644 35.1108 24.376 35.1665 24.2269 35.2839L20.4597 38.2501L16.5517 35.4693C16.4265 35.3786 16.2761 35.3294 16.1216 35.3284H16.0178L11.2718 36.018L9.27695 31.6576C9.19695 31.4848 9.05355 31.3494 8.87651 31.2794L4.42712 29.5071L4.87947 24.7314C4.89681 24.5424 4.8411 24.354 4.72374 24.2049L1.75749 20.4377L4.53835 16.5297C4.64708 16.3743 4.69223 16.1833 4.66442 15.9958L3.97476 11.2498L8.34258 9.25495C8.51536 9.17495 8.65079 9.03155 8.72078 8.8545L10.4931 4.40512L15.2688 4.85747C15.4578 4.8748 15.6462 4.81909 15.7953 4.70174L19.5625 1.73548L23.4705 4.51635C23.6259 4.62508 23.8169 4.67022 24.0044 4.64242L28.7504 3.95276L30.7452 8.32058C30.8252 8.49336 30.9686 8.62879 31.1457 8.69877L35.5951 10.4711L35.1427 15.2468C35.1254 15.4358 35.1811 15.6242 35.2985 15.7733L38.2647 19.5405L35.4838 23.4559Z" fill="#4A704C"/>
</g>
<defs>
<clipPath id="clip0_84_458">
<rect width="40" height="40" fill="white"/>
</clipPath>
</defs>
</svg>
