<svg width="40" height="40" viewBox="0 0 40 40" fill="none" xmlns="http://www.w3.org/2000/svg">
<g clip-path="url(#clip0_84_519)">
<path d="M10.3221 5.16138H6.45117V6.4517H10.3221V5.16138Z" fill="#4A704C"/>
<path d="M15.4842 5.16138H11.6133V6.4517H15.4842V5.16138Z" fill="#4A704C"/>
<path d="M20.6454 5.16138H16.7744V6.4517H20.6454V5.16138Z" fill="#4A704C"/>
<path d="M25.8065 5.16138H21.9355V6.4517H25.8065V5.16138Z" fill="#4A704C"/>
<path d="M6.45146 6.45166H5.16113V10.3226H6.45146V6.45166Z" fill="#4A704C"/>
<path d="M10.3221 10.3225H6.45117V11.6128H10.3221V10.3225Z" fill="#4A704C"/>
<path d="M11.6126 6.45166H10.3223V10.3226H11.6126V6.45166Z" fill="#4A704C"/>
<path d="M15.4842 10.3225H11.6133V11.6128H15.4842V10.3225Z" fill="#4A704C"/>
<path d="M16.7737 6.45166H15.4834V10.3226H16.7737V6.45166Z" fill="#4A704C"/>
<path d="M20.6454 10.3225H16.7744V11.6128H20.6454V10.3225Z" fill="#4A704C"/>
<path d="M21.9358 6.45166H20.6455V10.3226H21.9358V6.45166Z" fill="#4A704C"/>
<path d="M25.8065 10.3225H21.9355V11.6128H25.8065V10.3225Z" fill="#4A704C"/>
<path d="M6.45146 11.6128H5.16113V15.4838H6.45146V11.6128Z" fill="#4A704C"/>
<path d="M10.3221 15.4839H6.45117V16.7742H10.3221V15.4839Z" fill="#4A704C"/>
<path d="M11.6126 11.6128H10.3223V15.4838H11.6126V11.6128Z" fill="#4A704C"/>
<path d="M15.4842 15.4839H11.6133V16.7742H15.4842V15.4839Z" fill="#4A704C"/>
<path d="M16.7737 11.6128H15.4834V15.4838H16.7737V11.6128Z" fill="#4A704C"/>
<path d="M20.6454 15.4839H16.7744V16.7742H20.6454V15.4839Z" fill="#4A704C"/>
<path d="M21.9358 11.6128H20.6455V15.4838H21.9358V11.6128Z" fill="#4A704C"/>
<path d="M25.8065 15.4839H21.9355V16.7742H25.8065V15.4839Z" fill="#4A704C"/>
<path d="M27.097 6.45166H25.8066V10.3226H27.097V6.45166Z" fill="#4A704C"/>
<path d="M27.097 11.6128H25.8066V15.4838H27.097V11.6128Z" fill="#4A704C"/>
<path d="M38.0645 25.8064V23.2258H32.9032V25.8064H27.7419V23.2258H22.5806V25.8064H20.6452V38.7097H18.0645V21.9355H32.2581V0H0V21.9355H14.1935V38.7097H10.3226V40H20.6452H21.9355H40V25.8064H38.0645ZM16.7742 38.7097H15.4839V21.9355H16.7742V38.7097ZM15.4839 16.7742V20.6452H11.6129V16.7742H10.3226V20.6452H6.45161V16.7742H5.16129V20.6452H1.29032V16.7742H5.16129V15.4839H1.29032V11.6129H5.16129V10.3226H1.29032V6.45161H5.16129V5.16129H1.29032V1.29032H5.16129V5.16129H6.45161V1.29032H10.3226V5.16129H11.6129V1.29032H15.4839V5.16129H16.7742V1.29032H20.6452V5.16129H21.9355V1.29032H25.8064V5.16129H27.0968V1.29032H30.9677V5.16129H27.0968V6.45161H30.9677V10.3226H27.0968V11.6129H30.9677V15.4839H27.0968V16.7742H30.9677V20.6452H27.0968V16.7742H25.8064V20.6452H21.9355V16.7742H20.6452V20.6452H16.7742V16.7742H15.4839ZM34.1935 24.5161H36.7742V25.8064H34.1935V24.5161ZM23.871 24.5161H26.4516V25.8064H23.871V24.5161ZM38.7097 38.7097H21.9355V27.0968H38.7097V38.7097Z" fill="#4A704C"/>
<path d="M24.5159 31.6129H25.8062V30.3226H27.0966V29.0323H25.8062V27.7419H24.5159V29.0323H23.2256V30.3226H24.5159V31.6129Z" fill="#4A704C"/>
<path d="M37.4198 29.0322H33.5488V30.3225H37.4198V29.0322Z" fill="#4A704C"/>
</g>
<defs>
<clipPath id="clip0_84_519">
<rect width="40" height="40" fill="white"/>
</clipPath>
</defs>
</svg>
