<svg width="32" height="32" viewBox="0 0 32 32" fill="none" xmlns="http://www.w3.org/2000/svg">
<path d="M16.1932 27C20.8224 27 19.1718 23.6297 19.5291 22.6607C19.5238 21.9369 19.5185 21.2408 19.5398 20.8176C19.8331 20.9127 20.5251 21.3159 21.9544 22.9137C24.1611 25.4743 24.7251 27 26.5077 27H29.789C30.829 27 31.3703 26.5047 31.641 26.0892C31.9023 25.6875 32.1583 24.9821 31.8783 23.8843C31.1463 21.2408 26.877 16.6761 26.6117 16.1946C26.6517 16.1057 26.7157 15.9876 26.749 15.9263H26.7464C27.589 14.6459 30.805 9.10447 31.2783 6.88727C31.2797 6.8842 31.281 6.8796 31.281 6.875C31.537 5.863 31.3023 5.20673 31.0597 4.83567C30.6943 4.2806 30.113 4 29.3277 4H26.0464C24.9477 4 24.1144 4.63633 23.6931 5.79707C22.9877 7.8594 21.0064 12.1006 19.5211 13.6017C19.4758 11.475 19.5065 9.8512 19.5305 8.64447C19.5785 6.2908 19.7331 4 17.6091 4H12.4519C11.1212 4 9.84789 5.67133 11.2265 7.65547C12.4319 9.39427 11.6599 10.3633 11.9199 15.1872C10.9065 13.9375 9.1039 10.5627 7.82925 6.2494C7.47192 5.08253 6.93059 4.00153 5.40661 4.00153H2.12531C0.794658 4.00153 0 4.83567 0 6.23253C0 9.36973 6.0386 27 16.1932 27ZM5.40661 6.30153C5.69594 6.30153 5.72527 6.30153 5.93993 7.00227C7.24525 11.4229 10.1732 17.9641 12.3119 17.9641C13.9185 17.9641 13.9185 16.0704 13.9185 15.3574L13.9172 9.681C13.8292 7.80267 13.2345 6.86733 12.8439 6.3L17.5211 6.30613C17.5238 6.3322 17.4945 12.5851 17.5345 14.1001C17.5345 16.2513 19.0198 17.4841 21.3384 14.7855C23.7851 11.6099 25.4771 6.86273 25.5451 6.66953C25.6451 6.39353 25.7317 6.3 26.0464 6.3H29.3277H29.341C29.3397 6.3046 29.3397 6.3092 29.3383 6.3138C29.0383 7.9238 26.077 13.0543 25.0864 14.6475C25.0704 14.672 25.0557 14.6981 25.0411 14.7241C24.6051 15.5429 24.2504 16.4476 25.1011 17.7203C25.1784 17.8276 25.3811 18.0791 25.6744 18.4287C26.5864 19.5112 29.7143 23.2127 29.9917 24.6847C29.8077 24.7184 29.6077 24.6939 26.5077 24.7015C25.8477 24.7015 25.3317 23.5669 23.3624 21.2822C21.5918 19.3011 20.4424 18.4915 19.3958 18.4915C17.3638 18.4915 17.5118 20.3883 17.5305 22.6821C17.5371 25.1692 17.5238 24.3826 17.5385 24.539C17.4198 24.5927 17.0798 24.7 16.1932 24.7C7.73325 24.7 2.22398 9.2578 2.01198 6.30613C2.08531 6.29847 3.09463 6.30307 5.40661 6.30153Z" fill="white"/>
</svg>
