<svg width="32" height="32" viewBox="0 0 32 32" fill="none" xmlns="http://www.w3.org/2000/svg">
<g clip-path="url(#clip0_84_841)">
<path d="M27.3136 4.68625C24.2916 1.66425 20.2736 0 15.9999 0C15.9996 0 16 0 15.9998 0C11.7264 0 7.70813 1.66444 4.68625 4.68625C1.66431 7.70825 0 11.7262 0 16C0.000125 18.7206 0.6925 21.3945 2.00575 23.7595L0.034625 30.81C-0.0565 31.1361 0.03525 31.4859 0.274625 31.7253C0.514 31.9647 0.86375 32.0564 1.19 31.9653L8.24069 29.9941C10.6054 31.3076 13.2792 31.9999 15.9999 32C20.2738 32 24.2917 30.3357 27.3137 27.3137C30.3358 24.2917 32 20.2737 32 15.9999C31.9999 11.7261 30.3355 7.70825 27.3136 4.68625ZM15.9999 30.125C13.4783 30.1249 11.0031 29.4517 8.84169 28.1781C8.69613 28.0923 8.53163 28.0483 8.36575 28.0483C8.28113 28.0483 8.19625 28.0597 8.11331 28.0829L2.28869 29.7113L3.91706 23.8868C3.98575 23.6412 3.95138 23.3783 3.82194 23.1585C2.54831 20.9968 1.87513 18.5214 1.875 15.9999C1.875 12.227 3.34425 8.67994 6.01213 6.01206C8.68 3.34419 12.2271 1.875 15.9999 1.875C23.7882 1.875 30.1248 8.21144 30.125 15.9999C30.125 23.7885 23.7885 30.125 15.9999 30.125Z" fill="white"/>
<path d="M22.9072 17.199C22.3341 16.6259 21.5699 16.3103 20.7554 16.3103C19.9409 16.3103 19.1768 16.6259 18.6039 17.199L18.1692 17.6335C18.062 17.7407 17.918 17.7997 17.7637 17.7997C17.6092 17.7997 17.4652 17.7407 17.3578 17.6333L14.3657 14.6413C14.2585 14.5342 14.1995 14.39 14.1995 14.2356C14.1995 14.0812 14.2584 13.9372 14.3655 13.8301L14.8002 13.3954C15.9867 12.209 15.9867 10.2785 14.8003 9.09205L13.9309 8.22236C13.3577 7.64942 12.5935 7.33398 11.7791 7.33398C10.9647 7.33398 10.2005 7.64948 9.62742 8.22261L8.97917 8.87098C7.60861 10.2415 7.11111 12.2825 7.57817 14.6182C8.01773 16.8159 9.27417 19.0408 11.1161 20.8829C13.4373 23.2039 16.3935 24.5896 19.0242 24.5898H19.0247C20.6823 24.5898 22.1014 24.047 23.1282 23.0202L23.7765 22.3719C24.9629 21.1855 24.9629 19.2549 23.7765 18.0683L22.9072 17.199ZM22.4507 21.0461L21.8024 21.6944C21.1348 22.362 20.1744 22.7148 19.0248 22.7148H19.0245C16.88 22.7147 14.4192 21.5342 12.442 19.5572C10.8589 17.9739 9.78454 16.0893 9.41686 14.2505C9.07667 12.5494 9.39211 11.1099 10.3051 10.1968L10.9533 9.54848C11.1722 9.32961 11.4655 9.20905 11.7792 9.20905C12.093 9.20905 12.3864 9.32961 12.6052 9.54836L13.4745 10.4179C13.9299 10.8733 13.9299 11.6142 13.4745 12.0696L13.0398 12.5043C12.5785 12.9655 12.3245 13.5805 12.3245 14.2359C12.3246 14.8912 12.5787 15.5061 13.04 15.9673L16.032 18.9592C16.4934 19.4207 17.1084 19.6749 17.7637 19.6749C18.4189 19.6749 19.0338 19.4208 19.495 18.9595L19.9297 18.5249C20.1486 18.306 20.4419 18.1854 20.7555 18.1854C21.0692 18.1854 21.3624 18.306 21.5814 18.525L22.4507 19.3943C22.9061 19.8496 22.9062 20.5907 22.4507 21.0461Z" fill="white"/>
</g>
<defs>
<clipPath id="clip0_84_841">
<rect width="32" height="32" fill="white"/>
</clipPath>
</defs>
</svg>
