<svg width="32" height="28" viewBox="0 0 32 28" fill="none" xmlns="http://www.w3.org/2000/svg">
<path d="M31.5089 1.43112C31.1184 0.951625 30.5322 0.6875 29.8582 0.6875C29.4946 0.6875 29.1093 0.763625 28.7132 0.913687L1.62224 11.1781C0.181802 11.7239 -0.0120728 12.5456 0.000552172 12.9868C0.0131147 13.4258 0.251302 14.2292 1.70118 14.6929L7.4465 16.7984L10.4744 23.7294C10.7788 24.6881 11.4148 25.3606 12.2266 25.5787C12.4137 25.629 12.6048 25.6537 12.7972 25.6537C13.4564 25.6537 14.1314 25.3634 14.7144 24.8159L17.223 22.4591L23.3439 26.6721C23.8952 27.0794 24.495 27.2946 25.0799 27.2945C26.267 27.2944 27.2138 26.4254 27.492 25.0806L31.9227 3.65163C32.1048 2.77094 31.9578 1.98237 31.5089 1.43112ZM9.35056 16.4731L17.1688 12.2805L11.72 17.2786C11.526 17.4565 11.4179 17.7072 11.4176 17.9684C11.4173 17.9781 11.4161 17.9874 11.416 17.9971L11.3972 21.1578L9.35056 16.4731ZM13.4306 23.4493C13.3728 23.5036 13.3149 23.5514 13.2576 23.5929L13.2806 19.7454L15.6425 21.3711L13.4306 23.4493ZM30.0865 3.27194L25.6559 24.7008C25.6112 24.9169 25.4656 25.4195 25.0798 25.4195C24.8996 25.4195 24.6761 25.3268 24.4504 25.1583C24.4407 25.151 24.4309 25.144 24.421 25.1372L17.6729 20.4925C17.672 20.4919 17.6711 20.4913 17.6702 20.4906L13.8549 17.8646L23.9334 8.61981C24.2816 8.30038 24.3377 7.77169 24.0641 7.38631C23.7906 7.00094 23.273 6.87944 22.8566 7.10275L8.07256 15.0309L2.32711 12.9254C2.32293 12.9239 2.31874 12.9224 2.31449 12.9209L29.3776 2.66706C29.6056 2.58062 29.7648 2.5625 29.8582 2.5625C29.9045 2.5625 30.0164 2.56763 30.055 2.61513C30.1046 2.67594 30.1669 2.88275 30.0865 3.27194Z" fill="#4A704C"/>
</svg>
