<svg width="40" height="40" viewBox="0 0 40 40" fill="none" xmlns="http://www.w3.org/2000/svg">
<path d="M19.9998 3.33252C13.3432 3.33252 7.92773 8.74802 7.92773 15.4045C7.92773 23.6655 18.731 35.793 19.191 36.3052C19.623 36.7864 20.3773 36.7855 20.8087 36.3052C21.2685 35.793 32.0718 23.6655 32.0718 15.4045C32.0717 8.74802 26.6563 3.33252 19.9998 3.33252ZM19.9998 21.4784C16.6507 21.4784 13.9261 18.7537 13.9261 15.4045C13.9261 12.0554 16.6508 9.33082 19.9998 9.33082C23.3488 9.33082 26.0735 12.0555 26.0735 15.4046C26.0735 18.7537 23.3488 21.4784 19.9998 21.4784Z" fill="#4A704C"/>
</svg>
