<svg width="32" height="32" viewBox="0 0 32 32" fill="none" xmlns="http://www.w3.org/2000/svg">
<path d="M27.3136 4.68625C24.2916 1.66425 20.2736 0 15.9999 0C15.9996 0 16 0 15.9998 0C11.7264 0 7.70813 1.66444 4.68625 4.68625C1.66431 7.70825 0 11.7262 0 16C0.000125 18.7206 0.6925 21.3945 2.00575 23.7595L0.034625 30.81C-0.0565 31.1361 0.03525 31.4859 0.274625 31.7253C0.514 31.9647 0.86375 32.0564 1.19 31.9653L8.24069 29.9941C10.6054 31.3076 13.2792 31.9999 15.9999 32C20.2738 32 24.2917 30.3357 27.3137 27.3137C30.3358 24.2917 32 20.2737 32 15.9999C31.9999 11.7261 30.3355 7.70825 27.3136 4.68625ZM15.9999 30.125C13.4783 30.1249 11.0031 29.4517 8.84169 28.1781C8.69613 28.0923 8.53163 28.0483 8.36575 28.0483C8.28113 28.0483 8.19625 28.0597 8.11331 28.0829L2.28869 29.7113L3.91706 23.8868C3.98575 23.6412 3.95138 23.3783 3.82194 23.1585C2.54831 20.9968 1.87513 18.5214 1.875 15.9999C1.875 12.227 3.34425 8.67994 6.01213 6.01206C8.68 3.34419 12.2271 1.875 15.9999 1.875C23.7882 1.875 30.1248 8.21144 30.125 15.9999C30.125 23.7885 23.7885 30.125 15.9999 30.125Z" fill="#4A704C"/>
<path d="M22.9072 17.1989C22.3341 16.6258 21.5699 16.3101 20.7554 16.3101C19.9409 16.3101 19.1768 16.6257 18.6039 17.1988L18.1692 17.6334C18.062 17.7405 17.918 17.7996 17.7637 17.7996C17.6092 17.7996 17.4652 17.7405 17.3578 17.6331L14.3657 14.6411C14.2585 14.534 14.1995 14.3899 14.1995 14.2354C14.1995 14.081 14.2584 13.937 14.3655 13.8299L14.8002 13.3953C15.9867 12.2088 15.9867 10.2783 14.8003 9.09188L13.9309 8.22219C13.3577 7.64925 12.5935 7.33381 11.7791 7.33381C10.9647 7.33381 10.2005 7.64931 9.62742 8.22244L8.97917 8.87081C7.60861 10.2414 7.11111 12.2824 7.57817 14.618C8.01773 16.8158 9.27417 19.0406 11.1161 20.8827C13.4373 23.2037 16.3935 24.5894 19.0242 24.5896H19.0247C20.6823 24.5896 22.1014 24.0469 23.1282 23.0201L23.7765 22.3717C24.9629 21.1853 24.9629 19.2547 23.7765 18.0681L22.9072 17.1989ZM22.4507 21.0459L21.8024 21.6943C21.1348 22.3618 20.1744 22.7146 19.0248 22.7146H19.0245C16.88 22.7145 14.4192 21.5341 12.442 19.557C10.8589 17.9737 9.78454 16.0891 9.41686 14.2503C9.07667 12.5493 9.39211 11.1097 10.3051 10.1966L10.9533 9.54831C11.1722 9.32944 11.4655 9.20887 11.7792 9.20887C12.093 9.20887 12.3864 9.32944 12.6052 9.54819L13.4745 10.4177C13.9299 10.8731 13.9299 11.6141 13.4745 12.0694L13.0398 12.5041C12.5785 12.9654 12.3245 13.5804 12.3245 14.2358C12.3246 14.891 12.5787 15.5059 13.04 15.9671L16.032 18.9591C16.4934 19.4206 17.1084 19.6747 17.7637 19.6747C18.4189 19.6747 19.0338 19.4206 19.495 18.9594L19.9297 18.5247C20.1486 18.3058 20.4419 18.1852 20.7555 18.1852C21.0692 18.1852 21.3624 18.3058 21.5814 18.5248L22.4507 19.3941C22.9061 19.8494 22.9062 20.5905 22.4507 21.0459Z" fill="#4A704C"/>
</svg>
