<svg width="40" height="40" viewBox="0 0 40 40" fill="none" xmlns="http://www.w3.org/2000/svg">
<path d="M28.3333 35.0005C25.5772 34.998 22.8638 34.3168 20.4333 33.0171L19.6833 32.6005C14.5013 29.8143 10.2528 25.5658 7.46667 20.3838L7.05 19.6338C5.71637 17.1895 5.01188 14.4516 5 11.6671V10.5504C4.9993 9.66205 5.35327 8.81011 5.98333 8.18378L8.8 5.36711C9.07355 5.09145 9.45968 4.95858 9.84493 5.00755C10.2302 5.05651 10.5708 5.28178 10.7667 5.61711L14.5167 12.0504C14.8959 12.7053 14.7864 13.5334 14.25 14.0671L11.1 17.2171C10.8384 17.4758 10.7775 17.8755 10.95 18.2005L11.5333 19.3005C13.6284 23.1811 16.8155 26.3625 20.7 28.4505L21.8 29.0505C22.125 29.223 22.5247 29.162 22.7833 28.9005L25.9333 25.7505C26.467 25.2141 27.2952 25.1046 27.95 25.4838L34.3833 29.2338C34.7187 29.4296 34.944 29.7703 34.9928 30.1555C35.0418 30.5408 34.909 30.927 34.6333 31.2005L31.8167 34.0171C31.1903 34.6471 30.3383 35.0011 29.45 35.0005H28.3333Z" fill="#4A704C"/>
</svg>
