<svg width="319" height="268" viewBox="0 0 319 268" fill="none" xmlns="http://www.w3.org/2000/svg">
<path fill-rule="evenodd" clip-rule="evenodd" d="M17.24 257.683L13.5842 260.076L8.10162 251.798L13.5842 243.619L17.24 246.113L13.2523 251.831L17.24 257.683ZM9.99589 257.982L6.27335 260.443L0.59082 251.798L6.34029 243.32L9.96255 245.781L5.70909 251.798L9.99589 257.982ZM38.3083 255.223L42.8283 257.65C41.7643 259.688 40.2363 261.324 38.2418 262.553C36.248 263.783 34.0431 264.399 31.6295 264.399C28.15 264.399 25.1763 263.163 22.706 260.692C20.2362 258.221 19.0006 255.233 19.0006 251.732C19.0006 248.274 20.2362 245.309 22.706 242.838C25.1763 240.366 28.15 239.13 31.6295 239.13C34.0216 239.13 36.2204 239.752 38.2255 240.993C40.231 242.234 41.7643 243.874 42.8283 245.913L38.3083 248.274C37.6658 247.055 36.7523 246.074 35.5659 245.331C34.3818 244.589 33.0695 244.217 31.6295 244.217C29.5692 244.217 27.8027 244.96 26.3283 246.445C24.8551 247.93 24.1188 249.692 24.1188 251.732C24.1188 253.815 24.8551 255.6 26.3283 257.085C27.8027 258.57 29.5692 259.312 31.6295 259.312C33.0695 259.312 34.3818 258.941 35.5659 258.198C36.7523 257.455 37.6658 256.464 38.3083 255.223ZM64.5284 251.732C64.5284 249.67 63.7967 247.908 62.3351 246.445C60.8724 244.982 59.1003 244.251 57.0178 244.251C54.9575 244.251 53.191 244.988 51.7176 246.462C50.2444 247.936 49.5071 249.692 49.5071 251.732C49.5071 253.815 50.2444 255.6 51.7176 257.085C53.191 258.57 54.9575 259.312 57.0178 259.312C59.1003 259.312 60.8724 258.575 62.3351 257.101C63.7967 255.627 64.5284 253.838 64.5284 251.732ZM44.3896 251.732C44.3896 248.274 45.6247 245.309 48.095 242.838C50.5646 240.366 53.5391 239.13 57.0178 239.13C60.4952 239.13 63.4708 240.366 65.9404 242.838C68.4107 245.309 69.6459 248.274 69.6459 251.732C69.6459 255.233 68.4164 258.221 65.9567 260.692C63.4969 263.163 60.5179 264.399 57.0178 264.399C53.5175 264.399 50.5366 263.163 48.0787 260.692C45.6191 258.221 44.3896 255.233 44.3896 251.732ZM72.7696 263.601V239.929H77.8871V249.205H82.0748L88.4539 239.929H94.6354L86.4939 251.732L94.6354 263.601H88.4539L82.0748 254.324H77.8871V263.601H72.7696ZM112.082 257.65L116.635 255.223C117.278 256.464 118.185 257.455 119.36 258.198C120.534 258.941 121.841 259.312 123.281 259.312C124.898 259.312 126.355 258.852 127.65 257.933C128.946 257.013 129.85 255.799 130.359 254.292H119.858V249.304H130.393C129.905 247.819 129.002 246.601 127.683 245.647C126.366 244.694 124.898 244.217 123.281 244.217C121.841 244.217 120.529 244.589 119.343 245.331C118.158 246.074 117.255 247.055 116.635 248.274L112.082 245.913C113.167 243.874 114.713 242.234 116.718 240.993C118.723 239.752 120.911 239.13 123.281 239.13C126.759 239.13 129.733 240.366 132.203 242.838C134.673 245.309 135.909 248.274 135.909 251.732C135.909 255.233 134.678 258.221 132.22 260.692C129.761 263.163 126.782 264.399 123.281 264.399C120.888 264.399 118.701 263.789 116.718 262.57C114.735 261.351 113.19 259.711 112.082 257.65ZM139.033 263.601V239.929H144.15V249.172H155.515V239.929H160.599V263.601H155.515V254.225H144.15V263.601H139.033ZM165.02 263.601V239.929H183.994V244.949H170.137V249.205H180.106V254.192H170.137V258.547H183.994V263.601H165.02ZM187.683 263.601V239.929H198.417C201.142 239.929 203.485 240.832 205.445 242.639C207.406 244.445 208.386 246.655 208.386 249.271C208.386 251.865 207.406 254.07 205.445 255.888C203.485 257.705 201.142 258.614 198.417 258.614H192.801V263.601H187.683ZM192.801 253.627H198.383C199.757 253.627 200.921 253.194 201.873 252.33C202.826 251.466 203.301 250.446 203.301 249.271C203.301 248.097 202.809 247.077 201.823 246.213C200.838 245.348 199.646 244.916 198.25 244.916H192.801V253.627ZM209.949 267.391V258.514H212.142C212.828 257.273 213.426 255.455 213.937 253.062C214.445 250.668 214.7 248.13 214.7 245.448V239.929H232.712V258.514H235.569V267.391H230.485V263.601H215.066V267.391H209.949ZM219.818 245.448C219.818 250.878 219.042 255.233 217.491 258.514H227.627V244.949H219.818V245.448ZM266.009 251.732L274.184 263.601H267.97L261.622 254.324H258.166V263.601H253.082V254.324H249.626L243.28 263.601H237.098L245.24 251.732L237.098 239.929H243.28L249.659 249.205H253.082V239.929H258.166V249.205H261.589L267.97 239.929H274.184L266.009 251.732ZM277.208 263.601V239.929H282.326V256.02L293.824 239.929H299.273V263.601H294.156V247.509L282.691 263.601H277.208ZM305.953 260.076L302.297 257.683L306.284 251.831L302.297 246.113L305.953 243.619L311.402 251.798L305.953 260.076ZM313.263 260.443L309.508 257.982L313.795 251.798C313.507 251.399 312.1 249.393 309.575 245.781L313.196 243.32L318.946 251.798L313.263 260.443ZM226.285 110.872C225.644 110.272 226.556 111.561 226.285 110.872V110.872ZM92.0289 110.866C91.3033 110.159 92.3301 111.676 92.0289 110.866V110.866ZM227.217 110.333C226.822 110.696 227.601 109.918 227.217 110.333V110.333ZM258.124 68.642C257.382 64.6758 253.36 67.0562 250.61 67.0354C242.704 66.9752 218.642 74.4333 211.325 79.0308C208.596 80.7452 206.365 82.2464 203.181 83.6082C200.613 84.7072 185.336 97.0327 184.15 99.3725C184.021 99.6255 179.55 102.993 178.792 105.153C178.777 105.196 176.672 107.748 176.422 108.1C174.956 110.168 171.891 112.806 171.249 114.969C171.113 115.426 166.359 122.436 165.981 124.385C165.958 124.502 162.414 131.266 161.768 133.463C158.589 144.283 159.044 139.237 155.72 131.438C155.051 129.87 150.77 120.68 150.765 120.634C150.488 120.501 148.634 117.331 148.582 116.596C147.838 116.393 147.439 115.628 147.385 114.787C146.943 114.666 146.203 113.056 146.191 112.942C145.448 112.868 145.029 112.012 144.997 111.157C144.238 111.043 143.827 110.227 143.802 109.346C142.296 109.175 140.424 104.76 139.231 104.695C139.205 104.215 138.502 103.532 138.032 103.477C138.005 102.597 137.59 101.742 136.833 101.69C136.771 100.76 133.883 99.2943 133.786 98.334C132.828 98.2387 131.909 96.0084 131.048 95.8663C130.982 95.4279 130.289 94.7351 129.857 94.6622C129.777 94.2654 128.182 93.4803 128.057 93.4535C127.662 91.4103 115.028 83.9944 112.402 82.3976C103.066 76.7184 98.0086 74.7421 87.3678 71.1576C80.0588 68.6949 75.2736 68.0928 67.7739 67.0092C58.0571 65.6051 60.7538 68.1443 59.42 75.4792C57.5215 85.916 61.778 112.361 67.2183 122.888C71.1766 130.548 71.3799 133.083 76.808 140.622C79.0716 143.765 78.9995 144.88 82.5113 148.795C87.9339 154.838 89.185 156.858 95.6702 162.645C100.838 167.257 111.342 175.38 117.633 177.631C121.995 179.192 127.247 182.414 132.417 183.405C136.673 184.221 146.437 188.916 143.413 181.945C140.964 176.301 140.843 172.302 137.017 166.204C134.166 161.662 133.112 157.632 129.405 152.567C125.186 146.803 123.387 143.277 118.269 137.443C115.222 133.969 113.386 131.441 109.932 127.991C105.148 123.213 101.732 119.762 96.5935 115.235C93.2736 112.309 89.0949 108.683 97.1552 113.593C107.403 119.834 116.98 127.836 125.484 136.04C125.757 136.303 127.476 138.644 128.884 140.056C133.866 145.049 142.661 157.011 145.47 163.521C146.883 166.794 150.478 172.488 151.419 176.097C152.415 179.92 158.987 195.703 155.29 196.57C151.584 197.438 136.46 193.826 131.553 192.629C127.224 191.573 122.175 190.33 118.399 188.138C115.198 186.279 105.121 182.457 102.652 179.937C101.234 178.488 90.5852 172.288 88.7215 169.323C88.1104 168.351 78.7556 159.711 75.7143 155.312C70.4664 147.721 66.3131 142.18 62.8938 133.275C61.8272 130.497 57.7604 119.17 57.7404 119.227C56.2815 123.404 61.9768 141.242 63.8118 146.698C64.9728 150.151 71.4934 163.719 73.8044 165.858C74.9323 166.903 80.1696 175.711 82.0144 176.395C82.0318 176.402 84.6713 179.582 85.1464 180.02C87.9852 182.631 87.6772 183.367 91.4322 185.835C92.3347 186.427 92.7759 187.468 95.4381 189.235C96.1275 189.693 96.9465 191.376 98.2634 191.604C98.2883 191.609 100.697 193.748 101.437 194.005C101.53 194.038 104.652 196.648 107.02 197.347C107.091 197.369 109.918 199.564 111.134 199.807C111.356 199.852 111.732 200.826 112.868 201.007C113.016 201.031 116.545 203.241 118.118 203.405C119.119 203.51 129.064 208.329 133.19 208.605C133.474 208.624 135.736 209.703 137.672 209.802C140.451 209.943 144.421 211.645 148.097 211.572C153.56 211.464 169.015 213.038 172.887 211.016C173.113 210.898 183.624 209.99 184.362 208.601C185.887 208.553 196.353 205.29 198.33 204.285C199.555 203.661 205.916 201.109 206.131 200.384C207.58 200.285 208.191 199.202 208.823 199.131C208.868 198.777 217.962 194.142 218.335 192.798C219.782 192.69 222.946 189.178 225.1 188.107C225.251 188.032 237.08 176.019 237.133 175.817C237.447 175.717 238.29 174.171 238.337 174.01C240.804 173.344 248.583 158.903 250.001 156.443C253.995 149.51 262.162 126.682 260.941 119.648C260.605 117.718 258.528 126.911 257.67 128.244C255.826 131.106 254.246 138.337 251.264 142.259C249.21 144.96 247.487 149.626 244.326 153.249C241.821 156.122 240.948 158.29 237.58 161.652C231.648 167.574 227.08 172.954 219.543 177.479C217.241 178.861 211.958 183.328 209.166 183.758C209.136 183.763 203.621 187.013 202.312 187.349C200.077 187.924 196.555 190.513 192.899 190.999C189.719 191.421 182.611 194.684 178.02 194.945C174.907 195.123 162.607 198.112 162.168 195.386C161.192 189.321 168.398 173.978 170.76 167.76C174.361 158.283 182.562 148.609 188.965 140.949C197.28 131 205.695 124.362 216.272 116.916C217.77 115.861 229.969 107.051 223.616 113.66C221.452 115.911 217.431 119.064 214.571 122.114C209.932 127.061 205.925 130.813 201.189 136.1C196.591 141.234 190.239 150.105 186.911 156.076C182.503 163.986 179.576 168.547 176.515 177.592C172.207 190.323 175.053 184.956 186.553 183.299C190.983 182.661 205.147 175.849 208.98 172.929C212.072 170.574 215.362 169.531 218.933 166.007C220.469 164.493 223.439 162.614 225.989 160.067C228.723 157.338 230.729 155.797 232.946 152.603C235.238 149.298 237.994 147.785 240.893 142.381C244.525 135.606 246.573 134.022 249.897 125.86C252.683 119.021 254.179 115.906 255.999 108.881C259.356 95.9211 260.382 81.7153 258.124 68.642ZM143.819 10.8579H129.61V11.4581H127.409C126.865 12.4876 126.912 11.7128 126.809 12.6588H125.608V13.2601C124.838 13.2601 124.407 14.1303 124.407 15.0608C123.466 15.0608 123.207 17.4271 123.207 18.4612C121.912 18.4639 122.607 29.7174 122.607 31.8687C122.604 45.4724 121.631 62.9368 123.179 75.9984C123.259 76.6735 121.712 77.0031 123.142 77.3541C123.246 77.7563 123.945 78.46 124.353 78.5492C124.491 79.1676 128.609 81.8836 128.97 81.9362C129.044 82.3696 130.675 83.1248 130.779 83.1403C131.014 84.6808 132.219 84.1804 132.219 81.1927C132.218 61.352 132.609 41.0711 132.612 21.0641H139.215C139.77 21.0641 139.697 20.9092 139.817 20.4636H185.441C185.618 22.0738 185.843 19.372 185.842 24.0655C185.822 36.5901 185.485 91.4915 186.674 83.9464C186.721 83.6557 193.335 79.4223 193.728 78.6555C194.569 77.0121 195.42 82.7363 195.466 69.5268C195.524 52.7845 196.113 33.6228 195.383 17.1255C195.101 16.2706 194.847 16.9157 194.847 15.6613H194.246V14.4605H193.646V13.8592H193.046V13.2601H192.445V12.6588H191.845V12.0595C190.07 12.0595 191.462 11.6399 190.048 11.4547C189.84 11.4275 189.287 11.4587 189.043 11.4587V10.8584H174.236V0.252686H143.819V10.8579Z" fill="white"/>
</svg>
