<svg xmlns="http://www.w3.org/2000/svg" xmlns:xlink="http://www.w3.org/1999/xlink"><symbol id="icon-arr" viewBox="0 0 18 11"><path fill-rule="evenodd" clip-rule="evenodd" d="M9.53026 9.88389C9.23736 10.1768 8.76256 10.1768 8.46966 9.88389L0.823183 2.23739C0.530293 1.94449 0.530293 1.46969 0.823183 1.17679L1.17674 0.823191C1.46963 0.530291 1.9445 0.530291 2.2374 0.823191L8.99996 7.58579L15.7626 0.823191C16.0555 0.530291 16.5303 0.530291 16.8232 0.823191L17.1768 1.17679C17.4697 1.46969 17.4697 1.94449 17.1768 2.23739L9.53026 9.88389Z"/></symbol><use xlink:href="#icon-arr" width="18" height="11" y="0"/><view id="icon-arr-view" viewBox="0 0 18 11"/><symbol id="icon-logo" viewBox="0 0 319 268"><path fill-rule="evenodd" clip-rule="evenodd" d="M17.24 257.683L13.5842 260.076L8.10162 251.798L13.5842 243.619L17.24 246.113L13.2523 251.831L17.24 257.683ZM9.99589 257.982L6.27335 260.443L0.59082 251.798L6.34029 243.32L9.96255 245.781L5.70909 251.798L9.99589 257.982ZM38.3083 255.223L42.8283 257.65C41.7643 259.688 40.2363 261.324 38.2418 262.553C36.248 263.783 34.0431 264.399 31.6295 264.399C28.15 264.399 25.1763 263.163 22.706 260.692C20.2362 258.221 19.0006 255.233 19.0006 251.732C19.0006 248.274 20.2362 245.309 22.706 242.838C25.1763 240.366 28.15 239.13 31.6295 239.13C34.0216 239.13 36.2204 239.752 38.2255 240.993C40.231 242.234 41.7643 243.874 42.8283 245.913L38.3083 248.274C37.6658 247.055 36.7523 246.074 35.5659 245.331C34.3818 244.589 33.0695 244.217 31.6295 244.217C29.5692 244.217 27.8027 244.96 26.3283 246.445C24.8551 247.93 24.1188 249.692 24.1188 251.732C24.1188 253.815 24.8551 255.6 26.3283 257.085C27.8027 258.57 29.5692 259.312 31.6295 259.312C33.0695 259.312 34.3818 258.941 35.5659 258.198C36.7523 257.455 37.6658 256.464 38.3083 255.223ZM64.5284 251.732C64.5284 249.67 63.7967 247.908 62.3351 246.445C60.8724 244.982 59.1003 244.251 57.0178 244.251C54.9575 244.251 53.191 244.988 51.7176 246.462C50.2444 247.936 49.5071 249.692 49.5071 251.732C49.5071 253.815 50.2444 255.6 51.7176 257.085C53.191 258.57 54.9575 259.312 57.0178 259.312C59.1003 259.312 60.8724 258.575 62.3351 257.101C63.7967 255.627 64.5284 253.838 64.5284 251.732ZM44.3896 251.732C44.3896 248.274 45.6247 245.309 48.095 242.838C50.5646 240.366 53.5391 239.13 57.0178 239.13C60.4952 239.13 63.4708 240.366 65.9404 242.838C68.4107 245.309 69.6459 248.274 69.6459 251.732C69.6459 255.233 68.4164 258.221 65.9567 260.692C63.4969 263.163 60.5179 264.399 57.0178 264.399C53.5175 264.399 50.5366 263.163 48.0787 260.692C45.6191 258.221 44.3896 255.233 44.3896 251.732ZM72.7696 263.601V239.929H77.8871V249.205H82.0748L88.4539 239.929H94.6354L86.4939 251.732L94.6354 263.601H88.4539L82.0748 254.324H77.8871V263.601H72.7696ZM112.082 257.65L116.635 255.223C117.278 256.464 118.185 257.455 119.36 258.198C120.534 258.941 121.841 259.312 123.281 259.312C124.898 259.312 126.355 258.852 127.65 257.933C128.946 257.013 129.85 255.799 130.359 254.292H119.858V249.304H130.393C129.905 247.819 129.002 246.601 127.683 245.647C126.366 244.694 124.898 244.217 123.281 244.217C121.841 244.217 120.529 244.589 119.343 245.331C118.158 246.074 117.255 247.055 116.635 248.274L112.082 245.913C113.167 243.874 114.713 242.234 116.718 240.993C118.723 239.752 120.911 239.13 123.281 239.13C126.759 239.13 129.733 240.366 132.203 242.838C134.673 245.309 135.909 248.274 135.909 251.732C135.909 255.233 134.678 258.221 132.22 260.692C129.761 263.163 126.782 264.399 123.281 264.399C120.888 264.399 118.701 263.789 116.718 262.57C114.735 261.351 113.19 259.711 112.082 257.65ZM139.033 263.601V239.929H144.15V249.172H155.515V239.929H160.599V263.601H155.515V254.225H144.15V263.601H139.033ZM165.02 263.601V239.929H183.994V244.949H170.137V249.205H180.106V254.192H170.137V258.547H183.994V263.601H165.02ZM187.683 263.601V239.929H198.417C201.142 239.929 203.485 240.832 205.445 242.639C207.406 244.445 208.386 246.655 208.386 249.271C208.386 251.865 207.406 254.07 205.445 255.888C203.485 257.705 201.142 258.614 198.417 258.614H192.801V263.601H187.683ZM192.801 253.627H198.383C199.757 253.627 200.921 253.194 201.873 252.33C202.826 251.466 203.301 250.446 203.301 249.271C203.301 248.097 202.809 247.077 201.823 246.213C200.838 245.348 199.646 244.916 198.25 244.916H192.801V253.627ZM209.949 267.391V258.514H212.142C212.828 257.273 213.426 255.455 213.937 253.062C214.445 250.668 214.7 248.13 214.7 245.448V239.929H232.712V258.514H235.569V267.391H230.485V263.601H215.066V267.391H209.949ZM219.818 245.448C219.818 250.878 219.042 255.233 217.491 258.514H227.627V244.949H219.818V245.448ZM266.009 251.732L274.184 263.601H267.97L261.622 254.324H258.166V263.601H253.082V254.324H249.626L243.28 263.601H237.098L245.24 251.732L237.098 239.929H243.28L249.659 249.205H253.082V239.929H258.166V249.205H261.589L267.97 239.929H274.184L266.009 251.732ZM277.208 263.601V239.929H282.326V256.02L293.824 239.929H299.273V263.601H294.156V247.509L282.691 263.601H277.208ZM305.953 260.076L302.297 257.683L306.284 251.831L302.297 246.113L305.953 243.619L311.402 251.798L305.953 260.076ZM313.263 260.443L309.508 257.982L313.795 251.798C313.507 251.399 312.1 249.393 309.575 245.781L313.196 243.32L318.946 251.798L313.263 260.443ZM226.285 110.872C225.644 110.272 226.556 111.561 226.285 110.872V110.872ZM92.0289 110.866C91.3033 110.159 92.3301 111.676 92.0289 110.866V110.866ZM227.217 110.333C226.822 110.696 227.601 109.918 227.217 110.333V110.333ZM258.124 68.642C257.382 64.6758 253.36 67.0562 250.61 67.0354C242.704 66.9752 218.642 74.4333 211.325 79.0308C208.596 80.7452 206.365 82.2464 203.181 83.6082C200.613 84.7072 185.336 97.0327 184.15 99.3725C184.021 99.6255 179.55 102.993 178.792 105.153C178.777 105.196 176.672 107.748 176.422 108.1C174.956 110.168 171.891 112.806 171.249 114.969C171.113 115.426 166.359 122.436 165.981 124.385C165.958 124.502 162.414 131.266 161.768 133.463C158.589 144.283 159.044 139.237 155.72 131.438C155.051 129.87 150.77 120.68 150.765 120.634C150.488 120.501 148.634 117.331 148.582 116.596C147.838 116.393 147.439 115.628 147.385 114.787C146.943 114.666 146.203 113.056 146.191 112.942C145.448 112.868 145.029 112.012 144.997 111.157C144.238 111.043 143.827 110.227 143.802 109.346C142.296 109.175 140.424 104.76 139.231 104.695C139.205 104.215 138.502 103.532 138.032 103.477C138.005 102.597 137.59 101.742 136.833 101.69C136.771 100.76 133.883 99.2943 133.786 98.334C132.828 98.2387 131.909 96.0084 131.048 95.8663C130.982 95.4279 130.289 94.7351 129.857 94.6622C129.777 94.2654 128.182 93.4803 128.057 93.4535C127.662 91.4103 115.028 83.9944 112.402 82.3976C103.066 76.7184 98.0086 74.7421 87.3678 71.1576C80.0588 68.6949 75.2736 68.0928 67.7739 67.0092C58.0571 65.6051 60.7538 68.1443 59.42 75.4792C57.5215 85.916 61.778 112.361 67.2183 122.888C71.1766 130.548 71.3799 133.083 76.808 140.622C79.0716 143.765 78.9995 144.88 82.5113 148.795C87.9339 154.838 89.185 156.858 95.6702 162.645C100.838 167.257 111.342 175.38 117.633 177.631C121.995 179.192 127.247 182.414 132.417 183.405C136.673 184.221 146.437 188.916 143.413 181.945C140.964 176.301 140.843 172.302 137.017 166.204C134.166 161.662 133.112 157.632 129.405 152.567C125.186 146.803 123.387 143.277 118.269 137.443C115.222 133.969 113.386 131.441 109.932 127.991C105.148 123.213 101.732 119.762 96.5935 115.235C93.2736 112.309 89.0949 108.683 97.1552 113.593C107.403 119.834 116.98 127.836 125.484 136.04C125.757 136.303 127.476 138.644 128.884 140.056C133.866 145.049 142.661 157.011 145.47 163.521C146.883 166.794 150.478 172.488 151.419 176.097C152.415 179.92 158.987 195.703 155.29 196.57C151.584 197.438 136.46 193.826 131.553 192.629C127.224 191.573 122.175 190.33 118.399 188.138C115.198 186.279 105.121 182.457 102.652 179.937C101.234 178.488 90.5852 172.288 88.7215 169.323C88.1104 168.351 78.7556 159.711 75.7143 155.312C70.4664 147.721 66.3131 142.18 62.8938 133.275C61.8272 130.497 57.7604 119.17 57.7404 119.227C56.2815 123.404 61.9768 141.242 63.8118 146.698C64.9728 150.151 71.4934 163.719 73.8044 165.858C74.9323 166.903 80.1696 175.711 82.0144 176.395C82.0318 176.402 84.6713 179.582 85.1464 180.02C87.9852 182.631 87.6772 183.367 91.4322 185.835C92.3347 186.427 92.7759 187.468 95.4381 189.235C96.1275 189.693 96.9465 191.376 98.2634 191.604C98.2883 191.609 100.697 193.748 101.437 194.005C101.53 194.038 104.652 196.648 107.02 197.347C107.091 197.369 109.918 199.564 111.134 199.807C111.356 199.852 111.732 200.826 112.868 201.007C113.016 201.031 116.545 203.241 118.118 203.405C119.119 203.51 129.064 208.329 133.19 208.605C133.474 208.624 135.736 209.703 137.672 209.802C140.451 209.943 144.421 211.645 148.097 211.572C153.56 211.464 169.015 213.038 172.887 211.016C173.113 210.898 183.624 209.99 184.362 208.601C185.887 208.553 196.353 205.29 198.33 204.285C199.555 203.661 205.916 201.109 206.131 200.384C207.58 200.285 208.191 199.202 208.823 199.131C208.868 198.777 217.962 194.142 218.335 192.798C219.782 192.69 222.946 189.178 225.1 188.107C225.251 188.032 237.08 176.019 237.133 175.817C237.447 175.717 238.29 174.171 238.337 174.01C240.804 173.344 248.583 158.903 250.001 156.443C253.995 149.51 262.162 126.682 260.941 119.648C260.605 117.718 258.528 126.911 257.67 128.244C255.826 131.106 254.246 138.337 251.264 142.259C249.21 144.96 247.487 149.626 244.326 153.249C241.821 156.122 240.948 158.29 237.58 161.652C231.648 167.574 227.08 172.954 219.543 177.479C217.241 178.861 211.958 183.328 209.166 183.758C209.136 183.763 203.621 187.013 202.312 187.349C200.077 187.924 196.555 190.513 192.899 190.999C189.719 191.421 182.611 194.684 178.02 194.945C174.907 195.123 162.607 198.112 162.168 195.386C161.192 189.321 168.398 173.978 170.76 167.76C174.361 158.283 182.562 148.609 188.965 140.949C197.28 131 205.695 124.362 216.272 116.916C217.77 115.861 229.969 107.051 223.616 113.66C221.452 115.911 217.431 119.064 214.571 122.114C209.932 127.061 205.925 130.813 201.189 136.1C196.591 141.234 190.239 150.105 186.911 156.076C182.503 163.986 179.576 168.547 176.515 177.592C172.207 190.323 175.053 184.956 186.553 183.299C190.983 182.661 205.147 175.849 208.98 172.929C212.072 170.574 215.362 169.531 218.933 166.007C220.469 164.493 223.439 162.614 225.989 160.067C228.723 157.338 230.729 155.797 232.946 152.603C235.238 149.298 237.994 147.785 240.893 142.381C244.525 135.606 246.573 134.022 249.897 125.86C252.683 119.021 254.179 115.906 255.999 108.881C259.356 95.9211 260.382 81.7153 258.124 68.642ZM143.819 10.8579H129.61V11.4581H127.409C126.865 12.4876 126.912 11.7128 126.809 12.6588H125.608V13.2601C124.838 13.2601 124.407 14.1303 124.407 15.0608C123.466 15.0608 123.207 17.4271 123.207 18.4612C121.912 18.4639 122.607 29.7174 122.607 31.8687C122.604 45.4724 121.631 62.9368 123.179 75.9984C123.259 76.6735 121.712 77.0031 123.142 77.3541C123.246 77.7563 123.945 78.46 124.353 78.5492C124.491 79.1676 128.609 81.8836 128.97 81.9362C129.044 82.3696 130.675 83.1248 130.779 83.1403C131.014 84.6808 132.219 84.1804 132.219 81.1927C132.218 61.352 132.609 41.0711 132.612 21.0641H139.215C139.77 21.0641 139.697 20.9092 139.817 20.4636H185.441C185.618 22.0738 185.843 19.372 185.842 24.0655C185.822 36.5901 185.485 91.4915 186.674 83.9464C186.721 83.6557 193.335 79.4223 193.728 78.6555C194.569 77.0121 195.42 82.7363 195.466 69.5268C195.524 52.7845 196.113 33.6228 195.383 17.1255C195.101 16.2706 194.847 16.9157 194.847 15.6613H194.246V14.4605H193.646V13.8592H193.046V13.2601H192.445V12.6588H191.845V12.0595C190.07 12.0595 191.462 11.6399 190.048 11.4547C189.84 11.4275 189.287 11.4587 189.043 11.4587V10.8584H174.236V0.252686H143.819V10.8579Z"/></symbol><use xlink:href="#icon-logo" width="319" height="268" y="11"/><view id="icon-logo-view" viewBox="0 11 319 268"/><symbol id="icon-mail" viewBox="0 0 40 40"><path fill-rule="evenodd" clip-rule="evenodd" d="M6.66634 6.66748H33.333C35.174 6.66748 36.6663 8.15986 36.6663 10.0008V30.0008C36.6663 31.8418 35.174 33.3341 33.333 33.3341H6.66634C4.82539 33.3341 3.33301 31.8418 3.33301 30.0008V10.0008C3.33301 8.15986 4.82539 6.66748 6.66634 6.66748ZM22.7497 25.7508L33.333 18.3341V14.8341L21.083 23.4175C20.4315 23.8696 19.5678 23.8696 18.9163 23.4175L6.66634 14.8341V18.3341L17.2497 25.7508C18.9013 26.9053 21.098 26.9053 22.7497 25.7508Z"/></symbol><use xlink:href="#icon-mail" width="40" height="40" y="279"/><view id="icon-mail-view" viewBox="0 279 40 40"/><symbol id="icon-phone" viewBox="0 0 40 40"><path d="M28.3333 35.0005C25.5772 34.998 22.8638 34.3168 20.4333 33.0171L19.6833 32.6005C14.5013 29.8143 10.2528 25.5658 7.46667 20.3838L7.05 19.6338C5.71637 17.1895 5.01188 14.4516 5 11.6671V10.5504C4.9993 9.66205 5.35327 8.81011 5.98333 8.18378L8.8 5.36711C9.07355 5.09145 9.45968 4.95858 9.84493 5.00755C10.2302 5.05651 10.5708 5.28178 10.7667 5.61711L14.5167 12.0504C14.8959 12.7053 14.7864 13.5334 14.25 14.0671L11.1 17.2171C10.8384 17.4758 10.7775 17.8755 10.95 18.2005L11.5333 19.3005C13.6284 23.1811 16.8155 26.3625 20.7 28.4505L21.8 29.0505C22.125 29.223 22.5247 29.162 22.7833 28.9005L25.9333 25.7505C26.467 25.2141 27.2952 25.1046 27.95 25.4838L34.3833 29.2338C34.7187 29.4296 34.944 29.7703 34.9928 30.1555C35.0418 30.5408 34.909 30.927 34.6333 31.2005L31.8167 34.0171C31.1903 34.6471 30.3383 35.0011 29.45 35.0005H28.3333Z"/></symbol><use xlink:href="#icon-phone" width="40" height="40" y="319"/><view id="icon-phone-view" viewBox="0 319 40 40"/><symbol id="icon-pin" viewBox="0 0 40 40"><path d="M19.9998 3.33252C13.3432 3.33252 7.92773 8.74802 7.92773 15.4045C7.92773 23.6655 18.731 35.793 19.191 36.3052C19.623 36.7864 20.3773 36.7855 20.8087 36.3052C21.2685 35.793 32.0718 23.6655 32.0718 15.4045C32.0717 8.74802 26.6563 3.33252 19.9998 3.33252ZM19.9998 21.4784C16.6507 21.4784 13.9261 18.7537 13.9261 15.4045C13.9261 12.0554 16.6508 9.33082 19.9998 9.33082C23.3488 9.33082 26.0735 12.0555 26.0735 15.4046C26.0735 18.7537 23.3488 21.4784 19.9998 21.4784Z"/></symbol><use xlink:href="#icon-pin" width="40" height="40" y="359"/><view id="icon-pin-view" viewBox="0 359 40 40"/><symbol id="icon-tg" viewBox="0 0 32 28"><path d="M31.5089 1.43112C31.1184 0.951625 30.5322 0.6875 29.8582 0.6875C29.4946 0.6875 29.1093 0.763625 28.7132 0.913687L1.62224 11.1781C0.181802 11.7239 -0.0120728 12.5456 0.000552172 12.9868C0.0131147 13.4258 0.251302 14.2292 1.70118 14.6929L7.4465 16.7984L10.4744 23.7294C10.7788 24.6881 11.4148 25.3606 12.2266 25.5787C12.4137 25.629 12.6048 25.6537 12.7972 25.6537C13.4564 25.6537 14.1314 25.3634 14.7144 24.8159L17.223 22.4591L23.3439 26.6721C23.8952 27.0794 24.495 27.2946 25.0799 27.2945C26.267 27.2944 27.2138 26.4254 27.492 25.0806L31.9227 3.65163C32.1048 2.77094 31.9578 1.98237 31.5089 1.43112ZM9.35056 16.4731L17.1688 12.2805L11.72 17.2786C11.526 17.4565 11.4179 17.7072 11.4176 17.9684C11.4173 17.9781 11.4161 17.9874 11.416 17.9971L11.3972 21.1578L9.35056 16.4731ZM13.4306 23.4493C13.3728 23.5036 13.3149 23.5514 13.2576 23.5929L13.2806 19.7454L15.6425 21.3711L13.4306 23.4493ZM30.0865 3.27194L25.6559 24.7008C25.6112 24.9169 25.4656 25.4195 25.0798 25.4195C24.8996 25.4195 24.6761 25.3268 24.4504 25.1583C24.4407 25.151 24.4309 25.144 24.421 25.1372L17.6729 20.4925C17.672 20.4919 17.6711 20.4913 17.6702 20.4906L13.8549 17.8646L23.9334 8.61981C24.2816 8.30038 24.3377 7.77169 24.0641 7.38631C23.7906 7.00094 23.273 6.87944 22.8566 7.10275L8.07256 15.0309L2.32711 12.9254C2.32293 12.9239 2.31874 12.9224 2.31449 12.9209L29.3776 2.66706C29.6056 2.58062 29.7648 2.5625 29.8582 2.5625C29.9045 2.5625 30.0164 2.56763 30.055 2.61513C30.1046 2.67594 30.1669 2.88275 30.0865 3.27194Z"/></symbol><use xlink:href="#icon-tg" width="32" height="28" y="399"/><view id="icon-tg-view" viewBox="0 399 32 28"/><symbol id="icon-vk" viewBox="0 0 32 32"><path d="M16.1932 27C20.8224 27 19.1718 23.6297 19.5291 22.6607C19.5238 21.9369 19.5185 21.2408 19.5398 20.8176C19.8331 20.9127 20.5251 21.3159 21.9544 22.9137C24.1611 25.4743 24.7251 27 26.5077 27H29.789C30.829 27 31.3703 26.5047 31.641 26.0892C31.9023 25.6875 32.1583 24.9821 31.8783 23.8843C31.1463 21.2408 26.877 16.6761 26.6117 16.1946C26.6517 16.1057 26.7157 15.9876 26.749 15.9263H26.7464C27.589 14.6459 30.805 9.10447 31.2783 6.88727C31.2797 6.8842 31.281 6.8796 31.281 6.875C31.537 5.863 31.3023 5.20673 31.0597 4.83567C30.6943 4.2806 30.113 4 29.3277 4H26.0464C24.9477 4 24.1144 4.63633 23.6931 5.79707C22.9877 7.8594 21.0064 12.1006 19.5211 13.6017C19.4758 11.475 19.5065 9.8512 19.5305 8.64447C19.5785 6.2908 19.7331 4 17.6091 4H12.4519C11.1212 4 9.84789 5.67133 11.2265 7.65547C12.4319 9.39427 11.6599 10.3633 11.9199 15.1872C10.9065 13.9375 9.1039 10.5627 7.82925 6.2494C7.47192 5.08253 6.93059 4.00153 5.40661 4.00153H2.12531C0.794658 4.00153 0 4.83567 0 6.23253C0 9.36973 6.0386 27 16.1932 27ZM5.40661 6.30153C5.69594 6.30153 5.72527 6.30153 5.93993 7.00227C7.24525 11.4229 10.1732 17.9641 12.3119 17.9641C13.9185 17.9641 13.9185 16.0704 13.9185 15.3574L13.9172 9.681C13.8292 7.80267 13.2345 6.86733 12.8439 6.3L17.5211 6.30613C17.5238 6.3322 17.4945 12.5851 17.5345 14.1001C17.5345 16.2513 19.0198 17.4841 21.3384 14.7855C23.7851 11.6099 25.4771 6.86273 25.5451 6.66953C25.6451 6.39353 25.7317 6.3 26.0464 6.3H29.3277H29.341C29.3397 6.3046 29.3397 6.3092 29.3383 6.3138C29.0383 7.9238 26.077 13.0543 25.0864 14.6475C25.0704 14.672 25.0557 14.6981 25.0411 14.7241C24.6051 15.5429 24.2504 16.4476 25.1011 17.7203C25.1784 17.8276 25.3811 18.0791 25.6744 18.4287C26.5864 19.5112 29.7143 23.2127 29.9917 24.6847C29.8077 24.7184 29.6077 24.6939 26.5077 24.7015C25.8477 24.7015 25.3317 23.5669 23.3624 21.2822C21.5918 19.3011 20.4424 18.4915 19.3958 18.4915C17.3638 18.4915 17.5118 20.3883 17.5305 22.6821C17.5371 25.1692 17.5238 24.3826 17.5385 24.539C17.4198 24.5927 17.0798 24.7 16.1932 24.7C7.73325 24.7 2.22398 9.2578 2.01198 6.30613C2.08531 6.29847 3.09463 6.30307 5.40661 6.30153Z"/></symbol><use xlink:href="#icon-vk" width="32" height="32" y="427"/><view id="icon-vk-view" viewBox="0 427 32 32"/><symbol id="icon-whatsapp" viewBox="0 0 32 32"><path d="M27.3136 4.68625C24.2916 1.66425 20.2736 0 15.9999 0C15.9996 0 16 0 15.9998 0C11.7264 0 7.70813 1.66444 4.68625 4.68625C1.66431 7.70825 0 11.7262 0 16C0.000125 18.7206 0.6925 21.3945 2.00575 23.7595L0.034625 30.81C-0.0565 31.1361 0.03525 31.4859 0.274625 31.7253C0.514 31.9647 0.86375 32.0564 1.19 31.9653L8.24069 29.9941C10.6054 31.3076 13.2792 31.9999 15.9999 32C20.2738 32 24.2917 30.3357 27.3137 27.3137C30.3358 24.2917 32 20.2737 32 15.9999C31.9999 11.7261 30.3355 7.70825 27.3136 4.68625ZM15.9999 30.125C13.4783 30.1249 11.0031 29.4517 8.84169 28.1781C8.69613 28.0923 8.53163 28.0483 8.36575 28.0483C8.28113 28.0483 8.19625 28.0597 8.11331 28.0829L2.28869 29.7113L3.91706 23.8868C3.98575 23.6412 3.95138 23.3783 3.82194 23.1585C2.54831 20.9968 1.87513 18.5214 1.875 15.9999C1.875 12.227 3.34425 8.67994 6.01213 6.01206C8.68 3.34419 12.2271 1.875 15.9999 1.875C23.7882 1.875 30.1248 8.21144 30.125 15.9999C30.125 23.7885 23.7885 30.125 15.9999 30.125Z"/><path d="M22.9072 17.1989C22.3341 16.6258 21.5699 16.3101 20.7554 16.3101C19.9409 16.3101 19.1768 16.6257 18.6039 17.1988L18.1692 17.6334C18.062 17.7405 17.918 17.7996 17.7637 17.7996C17.6092 17.7996 17.4652 17.7405 17.3578 17.6331L14.3657 14.6411C14.2585 14.534 14.1995 14.3899 14.1995 14.2354C14.1995 14.081 14.2584 13.937 14.3655 13.8299L14.8002 13.3953C15.9867 12.2088 15.9867 10.2783 14.8003 9.09188L13.9309 8.22219C13.3577 7.64925 12.5935 7.33381 11.7791 7.33381C10.9647 7.33381 10.2005 7.64931 9.62742 8.22244L8.97917 8.87081C7.60861 10.2414 7.11111 12.2824 7.57817 14.618C8.01773 16.8158 9.27417 19.0406 11.1161 20.8827C13.4373 23.2037 16.3935 24.5894 19.0242 24.5896H19.0247C20.6823 24.5896 22.1014 24.0469 23.1282 23.0201L23.7765 22.3717C24.9629 21.1853 24.9629 19.2547 23.7765 18.0681L22.9072 17.1989ZM22.4507 21.0459L21.8024 21.6943C21.1348 22.3618 20.1744 22.7146 19.0248 22.7146H19.0245C16.88 22.7145 14.4192 21.5341 12.442 19.557C10.8589 17.9737 9.78454 16.0891 9.41686 14.2503C9.07667 12.5493 9.39211 11.1097 10.3051 10.1966L10.9533 9.54831C11.1722 9.32944 11.4655 9.20887 11.7792 9.20887C12.093 9.20887 12.3864 9.32944 12.6052 9.54819L13.4745 10.4177C13.9299 10.8731 13.9299 11.6141 13.4745 12.0694L13.0398 12.5041C12.5785 12.9654 12.3245 13.5804 12.3245 14.2358C12.3246 14.891 12.5787 15.5059 13.04 15.9671L16.032 18.9591C16.4934 19.4206 17.1084 19.6747 17.7637 19.6747C18.4189 19.6747 19.0338 19.4206 19.495 18.9594L19.9297 18.5247C20.1486 18.3058 20.4419 18.1852 20.7555 18.1852C21.0692 18.1852 21.3624 18.3058 21.5814 18.5248L22.4507 19.3941C22.9061 19.8494 22.9062 20.5905 22.4507 21.0459Z"/></symbol><use xlink:href="#icon-whatsapp" width="32" height="32" y="459"/><view id="icon-whatsapp-view" viewBox="0 459 32 32"/></svg>