<svg xmlns="http://www.w3.org/2000/svg" xmlns:xlink="http://www.w3.org/1999/xlink"><symbol id="icon-arr" viewBox="0 0 18 11"><path fill-rule="evenodd" clip-rule="evenodd" d="M9.53026 9.88389C9.23736 10.1768 8.76256 10.1768 8.46966 9.88389L0.823183 2.23739C0.530293 1.94449 0.530293 1.46969 0.823183 1.17679L1.17674 0.823191C1.46963 0.530291 1.9445 0.530291 2.2374 0.823191L8.99996 7.58579L15.7626 0.823191C16.0555 0.530291 16.5303 0.530291 16.8232 0.823191L17.1768 1.17679C17.4697 1.46969 17.4697 1.94449 17.1768 2.23739L9.53026 9.88389Z"/></symbol><use xlink:href="#icon-arr" width="18" height="11" y="0"/><view id="icon-arr-view" viewBox="0 0 18 11"/><symbol id="icon-mail" viewBox="0 0 40 40"><path fill-rule="evenodd" clip-rule="evenodd" d="M6.66634 6.66748H33.333C35.174 6.66748 36.6663 8.15986 36.6663 10.0008V30.0008C36.6663 31.8418 35.174 33.3341 33.333 33.3341H6.66634C4.82539 33.3341 3.33301 31.8418 3.33301 30.0008V10.0008C3.33301 8.15986 4.82539 6.66748 6.66634 6.66748ZM22.7497 25.7508L33.333 18.3341V14.8341L21.083 23.4175C20.4315 23.8696 19.5678 23.8696 18.9163 23.4175L6.66634 14.8341V18.3341L17.2497 25.7508C18.9013 26.9053 21.098 26.9053 22.7497 25.7508Z"/></symbol><use xlink:href="#icon-mail" width="40" height="40" y="11"/><view id="icon-mail-view" viewBox="0 11 40 40"/><symbol id="icon-phone" viewBox="0 0 40 40"><path d="M28.3333 35.0005C25.5772 34.998 22.8638 34.3168 20.4333 33.0171L19.6833 32.6005C14.5013 29.8143 10.2528 25.5658 7.46667 20.3838L7.05 19.6338C5.71637 17.1895 5.01188 14.4516 5 11.6671V10.5504C4.9993 9.66205 5.35327 8.81011 5.98333 8.18378L8.8 5.36711C9.07355 5.09145 9.45968 4.95858 9.84493 5.00755C10.2302 5.05651 10.5708 5.28178 10.7667 5.61711L14.5167 12.0504C14.8959 12.7053 14.7864 13.5334 14.25 14.0671L11.1 17.2171C10.8384 17.4758 10.7775 17.8755 10.95 18.2005L11.5333 19.3005C13.6284 23.1811 16.8155 26.3625 20.7 28.4505L21.8 29.0505C22.125 29.223 22.5247 29.162 22.7833 28.9005L25.9333 25.7505C26.467 25.2141 27.2952 25.1046 27.95 25.4838L34.3833 29.2338C34.7187 29.4296 34.944 29.7703 34.9928 30.1555C35.0418 30.5408 34.909 30.927 34.6333 31.2005L31.8167 34.0171C31.1903 34.6471 30.3383 35.0011 29.45 35.0005H28.3333Z"/></symbol><use xlink:href="#icon-phone" width="40" height="40" y="51"/><view id="icon-phone-view" viewBox="0 51 40 40"/><symbol id="icon-pin" viewBox="0 0 40 40"><path d="M19.9998 3.33252C13.3432 3.33252 7.92773 8.74802 7.92773 15.4045C7.92773 23.6655 18.731 35.793 19.191 36.3052C19.623 36.7864 20.3773 36.7855 20.8087 36.3052C21.2685 35.793 32.0718 23.6655 32.0718 15.4045C32.0717 8.74802 26.6563 3.33252 19.9998 3.33252ZM19.9998 21.4784C16.6507 21.4784 13.9261 18.7537 13.9261 15.4045C13.9261 12.0554 16.6508 9.33082 19.9998 9.33082C23.3488 9.33082 26.0735 12.0555 26.0735 15.4046C26.0735 18.7537 23.3488 21.4784 19.9998 21.4784Z"/></symbol><use xlink:href="#icon-pin" width="40" height="40" y="91"/><view id="icon-pin-view" viewBox="0 91 40 40"/></svg>