<svg width="40" height="40" viewBox="0 0 40 40" fill="none" xmlns="http://www.w3.org/2000/svg">
<g clip-path="url(#clip0_84_494)">
<path d="M7.08252 11.6246C7.20551 11.696 7.33979 11.7298 7.47254 11.7298C7.7417 11.7298 8.00354 11.5901 8.14819 11.3404L8.18939 11.2696C8.4079 10.8985 8.284 10.4206 7.9129 10.2021C7.54181 9.98363 7.06391 10.1075 6.8454 10.4786L6.79841 10.5592C6.58265 10.9318 6.70991 11.4088 7.08252 11.6246Z" fill="#4A704C"/>
<path d="M21.872 16.5291L23.0665 15.335C23.3711 15.0304 23.3711 14.5367 23.0665 14.2321C22.7619 13.9275 22.2682 13.9275 21.9636 14.2321L20.7694 15.4265C20.4649 15.7311 20.4649 16.2246 20.7694 16.5291C20.9217 16.6814 21.1213 16.7577 21.3206 16.7577C21.5202 16.7577 21.7198 16.6814 21.872 16.5291Z" fill="#4A704C"/>
<path d="M14.2807 16.7577C14.4803 16.7577 14.6799 16.6814 14.8322 16.5291C15.1368 16.2246 15.1368 15.7311 14.8322 15.4262L13.6377 14.2321C13.3332 13.9275 12.8397 13.9275 12.5348 14.2321C12.2306 14.5367 12.2306 15.0301 12.5348 15.3347L13.7293 16.5291C13.8816 16.6814 14.0812 16.7577 14.2807 16.7577Z" fill="#4A704C"/>
<path d="M18.58 14.6257V10.4799C18.58 10.0493 18.2308 9.7002 17.8002 9.7002C17.3696 9.7002 17.0205 10.0493 17.0205 10.4799V14.6257C17.0205 15.0563 17.3696 15.4055 17.8002 15.4055C18.2308 15.4055 18.58 15.0563 18.58 14.6257Z" fill="#4A704C"/>
<path d="M39.0135 5.2124C38.5417 4.69147 37.7727 3.90259 36.7885 3.10242C35.0475 1.68732 32.3244 0 29.2391 0C26.1495 0 23.4289 1.67908 21.6909 3.08777C21.108 3.56018 20.6036 4.02649 20.191 4.43634C19.4076 4.28711 18.6041 4.21082 17.8005 4.21082C14.5132 4.21082 11.3946 5.46204 9.02004 7.73376C8.70876 8.03131 8.69778 8.52509 8.99563 8.83606C9.14883 8.99628 9.3536 9.07715 9.55929 9.07684C9.75277 9.07684 9.94716 9.00513 10.0979 8.86047C12.181 6.86798 14.9166 5.77026 17.8005 5.77026C18.175 5.77026 18.5488 5.78918 18.9202 5.82611C18.4792 6.37085 18.4786 6.51184 18.4786 6.69037C18.4786 6.92474 18.4786 7.07977 19.465 8.16864C19.9368 8.68927 20.7058 9.47815 21.69 10.2783C23.2632 11.557 25.6377 13.0573 28.3571 13.335C28.7471 14.4843 28.9452 15.6866 28.9452 16.915C28.9452 21.4349 26.1431 25.5728 21.9582 27.2577H18.5803V22.186C19.5754 21.8576 20.2959 20.9198 20.2959 19.8163C20.2959 18.4402 19.1766 17.3209 17.8005 17.3209C16.4248 17.3209 15.3054 18.4402 15.3054 19.8163C15.3054 20.9198 16.0259 21.8576 17.0208 22.186V27.2577H13.6431C11.4166 26.3614 9.50924 24.74 8.26107 22.6797C7.21127 20.9467 6.65616 18.9532 6.65616 16.915C6.65616 15.9869 6.77029 15.0644 6.99551 14.1736C7.1011 13.7561 6.84842 13.3319 6.43094 13.2263C6.01316 13.1207 5.58927 13.3737 5.48368 13.7912C5.22703 14.8068 5.09672 15.8578 5.09672 16.915C5.09672 18.8608 5.54227 20.7706 6.39035 22.5012V23.0286C5.93503 23.2373 5.50107 23.4882 5.09275 23.779L3.71916 22.9858C3.34623 22.7707 2.86925 22.8986 2.6541 23.2715L0.104668 27.6865C-0.110786 28.0594 0.0170824 28.5364 0.390006 28.7518L1.7639 29.545C1.7404 29.7943 1.72881 30.0449 1.72881 30.2939C1.72881 30.5432 1.7404 30.7938 1.7639 31.0431L0.390006 31.8362C0.0170824 32.0517 -0.110786 32.5284 0.104668 32.9013L2.65379 37.3166C2.86925 37.6895 3.34593 37.8174 3.71885 37.6019L5.09244 36.8091C5.50107 37.0999 5.93503 37.3508 6.39005 37.5595V39.1443C6.39005 39.5749 6.73917 39.924 7.16977 39.924H12.2683C12.6989 39.924 13.048 39.5749 13.048 39.1443V37.8058C13.4967 39.0399 14.6813 39.924 16.069 39.924H19.5321C21.3039 39.924 22.7453 38.4827 22.7453 36.7108V35.636C23.9022 35.4193 24.7808 34.4025 24.7808 33.1839C24.7808 32.5198 24.5196 31.9159 24.0951 31.4682C24.5196 31.0208 24.7808 30.4169 24.7808 29.7528C24.7808 29.0613 24.4979 28.4348 24.042 27.9822C25.6966 27.0496 27.1236 25.7562 28.2268 24.1748C29.717 22.0389 30.5046 19.5285 30.5046 16.915C30.5046 15.6967 30.3331 14.5004 29.9956 13.3466C32.7709 13.1046 35.1927 11.5854 36.7876 10.293C37.7788 9.48975 38.5457 8.70239 39.0144 8.18329C39.9999 7.09198 39.9999 6.92352 39.9999 6.69037C39.9999 6.45599 39.9999 6.30096 39.0135 5.2124ZM17.8005 18.8803C18.3166 18.8803 18.7362 19.2999 18.7362 19.816C18.7362 20.332 18.3166 20.7516 17.8005 20.7516C17.2845 20.7516 16.8649 20.332 16.8649 19.816C16.8649 19.3002 17.2845 18.8803 17.8005 18.8803ZM22.2854 30.6885H13.3154C12.7996 30.6885 12.3797 30.2689 12.3797 29.7528C12.3797 29.2368 12.7996 28.8171 13.3154 28.8171H22.2854C22.8014 28.8171 23.2213 29.2368 23.2213 29.7528C23.2213 30.2689 22.8014 30.6885 22.2854 30.6885ZM9.71889 27.3309C9.95296 27.3309 10.1858 27.3581 10.411 27.4118C10.4989 27.4329 10.5868 27.4371 10.672 27.4286C10.9603 27.6245 11.2567 27.8091 11.5603 27.981C11.1038 28.4335 10.82 29.0607 10.82 29.7528C10.82 30.4169 11.0815 31.0208 11.506 31.4682C11.1117 31.8839 10.8584 32.4347 10.8242 33.0432C10.4748 33.1833 10.0985 33.2571 9.71889 33.2571C8.08499 33.2571 6.75565 31.9278 6.75565 30.2939C6.75565 28.66 8.08529 27.3309 9.71889 27.3309ZM11.9924 36.311C11.6891 36.4258 11.4886 36.7163 11.4886 37.0404V38.3646H7.94979V37.0404C7.94979 36.7163 7.74899 36.4258 7.44565 36.311C6.79288 36.0645 6.18772 35.7144 5.64664 35.271C5.39548 35.065 5.04331 35.0363 4.76255 35.1987L3.61448 35.8615L1.84508 32.7969L2.99254 32.1344C3.27299 31.9724 3.42436 31.6537 3.37217 31.3339C3.31633 30.9906 3.28825 30.6406 3.28825 30.2939C3.28825 29.9472 3.31633 29.5972 3.37217 29.2538C3.42436 28.934 3.27299 28.6154 2.99254 28.4534L1.84508 27.7908L3.61448 24.7263L4.76255 25.3891C5.04362 25.5511 5.39548 25.5228 5.64664 25.3168C6.18772 24.8734 6.79318 24.5233 7.44565 24.2764C7.44626 24.2764 7.44656 24.2761 7.44687 24.2761C7.85153 24.8431 8.30166 25.3751 8.79147 25.8673C6.7413 26.2964 5.19651 28.118 5.19651 30.2939C5.19651 32.7875 7.22531 34.8163 9.7192 34.8163C10.2359 34.8163 10.7492 34.7275 11.2332 34.556C11.5991 35.1096 12.1798 35.5093 12.8558 35.6357V35.9076C12.5781 36.0629 12.2891 36.199 11.9924 36.311ZM21.1858 36.7108C21.1858 37.6227 20.444 38.3646 19.5321 38.3646H16.0687C15.1568 38.3646 14.4149 37.6227 14.4149 36.7108V35.679H21.1858V36.7108ZM22.2854 34.1196H13.3154C12.7993 34.1196 12.3797 33.7 12.3797 33.1839C12.3797 32.6678 12.7993 32.2482 13.3154 32.2482H22.2854C22.8014 32.2482 23.221 32.6678 23.221 33.1839C23.221 33.7 22.8014 34.1196 22.2854 34.1196ZM29.2391 11.821C24.9465 11.821 21.3027 7.93427 20.2377 6.6745C21.3634 5.31036 25.0939 1.55975 29.2391 1.55975C33.5317 1.55975 37.1755 5.44647 38.2405 6.70624C37.1147 8.07037 33.3846 11.821 29.2391 11.821Z" fill="#4A704C"/>
<path d="M29.2392 2.66699C27.0206 2.66699 25.2158 4.4718 25.2158 6.69043C25.2158 8.90906 27.0206 10.7142 29.2392 10.7142C31.4579 10.7142 33.263 8.90906 33.263 6.69043C33.263 4.4718 31.4579 2.66699 29.2392 2.66699ZM29.2392 9.15442C27.8806 9.15442 26.7753 8.04907 26.7753 6.69043C26.7753 5.33179 27.8806 4.22644 29.2392 4.22644C30.5979 4.22644 31.7032 5.33179 31.7032 6.69043C31.7032 8.04907 30.5979 9.15442 29.2392 9.15442Z" fill="#4A704C"/>
</g>
<defs>
<clipPath id="clip0_84_494">
<rect width="40" height="40" fill="white"/>
</clipPath>
</defs>
</svg>
