<svg width="40" height="40" viewBox="0 0 40 40" fill="none" xmlns="http://www.w3.org/2000/svg">
<g clip-path="url(#clip0_84_469)">
<path d="M39.2187 17.1338C39.003 17.1338 38.8077 17.2214 38.6664 17.3627L31.9119 24.1171C31.5408 23.9194 31.1175 23.8068 30.668 23.8068C30.2203 23.8068 29.798 23.9188 29.4275 24.1153L26.029 20.7169C26.2295 20.3433 26.3437 19.917 26.3437 19.4644C26.3437 17.9996 25.152 16.8082 23.6874 16.8082C22.2226 16.8082 21.0312 17.9996 21.0312 19.4644C21.0312 19.9011 21.138 20.3134 21.3257 20.6775L19.3704 22.6324C19.0012 22.4374 18.5809 22.3267 18.1351 22.3267C17.684 22.3267 17.2589 22.4399 16.8863 22.6392L11.7313 17.4841C11.9064 17.1301 12.0053 16.7319 12.0053 16.311C12.0053 14.8462 10.8136 13.6548 9.34906 13.6548C7.88452 13.6548 6.69281 14.8462 6.69281 16.311C6.69281 16.7868 6.81915 17.2336 7.03918 17.6202L1.5625 23.0966V0.78125C1.5625 0.349731 1.21277 0 0.78125 0C0.349731 0 0 0.349731 0 0.78125V24.9823V24.9832V39.2188C0 39.6503 0.349731 40 0.78125 40H39.2187C39.6503 40 40 39.6503 40 39.2188V17.915C40 17.4838 39.6503 17.1338 39.2187 17.1338ZM31.7618 26.463C31.7618 27.0663 31.2714 27.5568 30.668 27.5568C30.065 27.5568 29.5743 27.0663 29.5743 26.463C29.5743 25.86 30.065 25.3693 30.668 25.3693C31.2714 25.3693 31.7618 25.86 31.7618 26.463ZM10.1303 18.8498C10.3159 18.7927 10.4922 18.7152 10.6583 18.6209L15.7846 23.7473C15.5896 24.1165 15.4788 24.5367 15.4788 24.9829C15.4788 26.1758 16.2692 27.1872 17.3538 27.5217V38.4375H10.1303V18.8498ZM18.9163 27.5217C20.0006 27.1872 20.7913 26.1758 20.7913 24.9829C20.7913 24.5316 20.6778 24.1068 20.4785 23.7341L22.4167 21.7963C22.5711 21.8808 22.735 21.9504 22.9062 22.0032V38.4375H18.9163V27.5217ZM23.6874 18.3707C24.2905 18.3707 24.7812 18.8611 24.7812 19.4644C24.7812 20.0674 24.2905 20.5582 23.6874 20.5582C23.0841 20.5582 22.5937 20.0674 22.5937 19.4644C22.5937 18.8611 23.0844 18.3707 23.6874 18.3707ZM19.2288 24.9826C19.2288 25.5859 18.7381 26.0764 18.1351 26.0764C17.5317 26.0764 17.0413 25.5859 17.0413 24.9826C17.0413 24.3796 17.5317 23.8889 18.1351 23.8889C18.7381 23.8889 19.2288 24.3796 19.2288 24.9826ZM9.34906 15.217C9.95209 15.217 10.4428 15.7077 10.4428 16.3107C10.4428 16.9141 9.95209 17.4045 9.34906 17.4045C8.74573 17.4045 8.25531 16.9141 8.25531 16.3107C8.25531 15.7077 8.74573 15.217 9.34906 15.217ZM1.5625 25.3064L8.17566 18.6932C8.30108 18.7552 8.432 18.808 8.56781 18.8498V38.4375H1.5625V25.3064ZM24.4687 38.4375V22.0032C24.6255 21.9547 24.776 21.8918 24.9191 21.8167L28.3218 25.2194C28.1244 25.5908 28.0118 26.0141 28.0118 26.463C28.0118 27.6559 28.8022 28.6676 29.8868 29.0021V33.3984C29.8868 33.83 30.2365 34.1797 30.668 34.1797C31.0995 34.1797 31.4493 33.83 31.4493 33.3984V29.0021C32.5339 28.6676 33.3243 27.6559 33.3243 26.463C33.3243 26.0153 33.2123 25.5933 33.016 25.2228L38.4375 19.8013V38.4375H24.4687Z" fill="#4A704C"/>
<path d="M30.668 35.4688C30.4626 35.4688 30.2609 35.5524 30.1156 35.6976C29.9703 35.8429 29.8867 36.0446 29.8867 36.25C29.8867 36.4554 29.9703 36.6571 30.1156 36.8024C30.2609 36.9476 30.4626 37.0312 30.668 37.0312C30.8734 37.0312 31.0751 36.9476 31.2203 36.8024C31.3662 36.6571 31.4492 36.4554 31.4492 36.25C31.4492 36.0446 31.3662 35.8429 31.2203 35.6976C31.0751 35.5524 30.8734 35.4688 30.668 35.4688Z" fill="#4A704C"/>
<path d="M6.09857 8.37677L9.46435 5.01099L17.7099 13.2565C18.0151 13.5617 18.5095 13.5617 18.8146 13.2565L23.5565 8.51471L30.2453 15.2039C30.3979 15.3564 30.5978 15.4324 30.7977 15.4324C30.9976 15.4324 31.1974 15.3564 31.35 15.2039L37.8118 8.74207C37.8619 9.03351 38.0749 9.28375 38.3791 9.36523C38.4466 9.38354 38.5146 9.39209 38.5818 9.39209C38.9266 9.39209 39.2425 9.16199 39.3359 8.81287L39.9737 6.43311C40.046 6.16333 39.9688 5.87585 39.7714 5.67841C39.5742 5.48096 39.2867 5.40375 39.0167 5.47607L36.6369 6.11389C36.22 6.22559 35.9728 6.65405 36.0845 7.07092C36.1657 7.37457 36.4156 7.58728 36.7065 7.63794L30.7977 13.5464L24.1088 6.8576C23.8036 6.55273 23.3093 6.55273 23.0038 6.8576L18.2623 11.5994L10.0167 3.35388C9.71155 3.04871 9.21686 3.04871 8.91168 3.35388L4.99353 7.27203C4.68835 7.57721 4.68835 8.0719 4.99353 8.37677C5.29871 8.68225 5.79309 8.68225 6.09857 8.37677Z" fill="#4A704C"/>
<path d="M3.72168 10.4297C3.92706 10.4297 4.12878 10.347 4.27405 10.2008C4.41931 10.0555 4.50293 9.85382 4.50293 9.64844C4.50293 9.44305 4.41931 9.24133 4.27405 9.09607C4.12878 8.95081 3.92706 8.86719 3.72168 8.86719C3.5163 8.86719 3.31458 8.95081 3.1684 9.09607C3.02313 9.24133 2.94043 9.44305 2.94043 9.64844C2.94043 9.85382 3.02313 10.0555 3.1684 10.2008C3.31458 10.347 3.5163 10.4297 3.72168 10.4297Z" fill="#4A704C"/>
</g>
<defs>
<clipPath id="clip0_84_469">
<rect width="40" height="40" fill="white"/>
</clipPath>
</defs>
</svg>
